<?xml version="1.0" encoding="UTF-8" standalone="no"?><svg xmlns="http://www.w3.org/2000/svg" xmlns:xlink="http://www.w3.org/1999/xlink" clip-rule="evenodd" stroke-miterlimit="10" viewBox="0 0 413 35"><desc>SVG generated by Keynote</desc><defs></defs><g transform="matrix(1.00, 0.00, -0.00, -1.00, 0.0, 35.0)"><path d="M -0.4 39.5 L 413.7 39.5 L 413.7 -1.5 L -0.4 -1.5 Z M -0.4 39.5 " fill="#000000"></path><text xml:space="preserve" font-family="Monaco,Monaco" font-size="30.0" fill="#CCCCCC" transform="matrix(1.00, 0.00, -0.00, -1.00, -0.4, 8.5)">(</text><text xml:space="preserve" font-family="Monaco,Monaco" font-size="30.0" fill="#B7E9CB" transform="matrix(1.00, 0.00, -0.00, -1.00, 17.6, 8.5)">d</text><text xml:space="preserve" font-family="Monaco,Monaco" font-size="30.0" fill="#B7E9CB" transform="matrix(1.00, 0.00, -0.00, -1.00, 35.6, 8.5)">e</text><text xml:space="preserve" font-family="Monaco,Monaco" font-size="30.0" fill="#B7E9CB" transform="matrix(1.00, 0.00, -0.00, -1.00, 53.7, 8.5)">f</text><text xml:space="preserve" font-family="Monaco,Monaco" font-size="30.0" fill="#CCCCCC" transform="matrix(1.00, 0.00, -0.00, -1.00, 71.7, 8.5)"> </text><text xml:space="preserve" font-family="Monaco,Monaco" font-size="30.0" fill="#ADCEFC" transform="matrix(1.00, 0.00, -0.00, -1.00, 89.7, 8.5)">m</text><text xml:space="preserve" font-family="Monaco,Monaco" font-size="30.0" fill="#ADCEFC" transform="matrix(1.00, 0.00, -0.00, -1.00, 107.7, 8.5)">y</text><text xml:space="preserve" font-family="Monaco,Monaco" font-size="30.0" fill="#ADCEFC" transform="matrix(1.00, 0.00, -0.00, -1.00, 125.7, 8.5)">-</text><text xml:space="preserve" font-family="Monaco,Monaco" font-size="30.0" fill="#ADCEFC" transform="matrix(1.00, 0.00, -0.00, -1.00, 143.7, 8.5)">a</text><text xml:space="preserve" font-family="Monaco,Monaco" font-size="30.0" fill="#ADCEFC" transform="matrix(1.00, 0.00, -0.00, -1.00, 161.7, 8.5)">t</text><text xml:space="preserve" font-family="Monaco,Monaco" font-size="30.0" fill="#ADCEFC" transform="matrix(1.00, 0.00, -0.00, -1.00, 179.7, 8.5)">o</text><text xml:space="preserve" font-family="Monaco,Monaco" font-size="30.0" fill="#ADCEFC" transform="matrix(1.00, 0.00, -0.00, -1.00, 197.7, 8.5)">m</text><text xml:space="preserve" font-family="Monaco,Monaco" font-size="30.0" fill="#CCCCCC" transform="matrix(1.00, 0.00, -0.00, -1.00, 215.7, 8.5)"> </text><text xml:space="preserve" font-family="Monaco,Monaco" font-size="30.0" fill="#CCCCCC" transform="matrix(1.00, 0.00, -0.00, -1.00, 233.7, 8.5)">(</text><text xml:space="preserve" font-family="Monaco,Monaco" font-size="30.0" fill="#CCCCCC" transform="matrix(1.00, 0.00, -0.00, -1.00, 251.7, 8.5)">a</text><text xml:space="preserve" font-family="Monaco,Monaco" font-size="30.0" fill="#CCCCCC" transform="matrix(1.00, 0.00, -0.00, -1.00, 269.7, 8.5)">t</text><text xml:space="preserve" font-family="Monaco,Monaco" font-size="30.0" fill="#CCCCCC" transform="matrix(1.00, 0.00, -0.00, -1.00, 287.7, 8.5)">o</text><text xml:space="preserve" font-family="Monaco,Monaco" font-size="30.0" fill="#CCCCCC" transform="matrix(1.00, 0.00, -0.00, -1.00, 305.7, 8.5)">m</text><text xml:space="preserve" font-family="Monaco,Monaco" font-size="30.0" fill="#CCCCCC" transform="matrix(1.00, 0.00, -0.00, -1.00, 323.7, 8.5)"> </text><text xml:space="preserve" font-family="Monaco,Monaco" font-size="30.0" fill="#CCCCCC" transform="matrix(1.00, 0.00, -0.00, -1.00, 341.7, 8.5)">{</text><text xml:space="preserve" font-family="Monaco,Monaco" font-size="30.0" fill="#CCCCCC" transform="matrix(1.00, 0.00, -0.00, -1.00, 359.7, 8.5)">}</text><text xml:space="preserve" font-family="Monaco,Monaco" font-size="30.0" fill="#CCCCCC" transform="matrix(1.00, 0.00, -0.00, -1.00, 377.7, 8.5)">)</text><text xml:space="preserve" font-family="Monaco,Monaco" font-size="30.0" fill="#CCCCCC" transform="matrix(1.00, 0.00, -0.00, -1.00, 395.7, 8.5)">)</text></g></svg>