<?xml version="1.0" encoding="UTF-8" standalone="no"?><svg xmlns="http://www.w3.org/2000/svg" xmlns:xlink="http://www.w3.org/1999/xlink" clip-rule="evenodd" stroke-miterlimit="10" viewBox="0 0 546 26"><desc>SVG generated by Keynote</desc><defs></defs><g transform="matrix(1.00, 0.00, -0.00, -1.00, 0.0, 26.0)"><text xml:space="preserve" font-family="HelveticaNeue-LightItalic,Helvetica Neue" font-style="italic" font-size="24.0" fill="#FEFFFF" transform="matrix(1.00, 0.00, -0.00, -1.00, 1.2, 5.9)">-</text><text xml:space="preserve" font-family="HelveticaNeue-LightItalic,Helvetica Neue" font-style="italic" font-size="24.0" fill="#FEFFFF" transform="matrix(1.00, 0.00, -0.00, -1.00, 10.1, 5.9)"> </text><text xml:space="preserve" font-family="HelveticaNeue-LightItalic,Helvetica Neue" font-style="italic" font-size="24.0" fill="#FEFFFF" transform="matrix(1.00, 0.00, -0.00, -1.00, 16.8, 5.9)">R</text><text xml:space="preserve" font-family="HelveticaNeue-LightItalic,Helvetica Neue" font-style="italic" font-size="24.0" fill="#FEFFFF" transform="matrix(1.00, 0.00, -0.00, -1.00, 32.3, 5.9)">a</text><text xml:space="preserve" font-family="HelveticaNeue-LightItalic,Helvetica Neue" font-style="italic" font-size="24.0" fill="#FEFFFF" transform="matrix(1.00, 0.00, -0.00, -1.00, 44.8, 5.9)">n</text><text xml:space="preserve" font-family="HelveticaNeue-LightItalic,Helvetica Neue" font-style="italic" font-size="24.0" fill="#FEFFFF" transform="matrix(1.00, 0.00, -0.00, -1.00, 57.7, 5.9)">d</text><text xml:space="preserve" font-family="HelveticaNeue-LightItalic,Helvetica Neue" font-style="italic" font-size="24.0" fill="#FEFFFF" transform="matrix(1.00, 0.00, -0.00, -1.00, 71.4, 5.9)">a</text><text xml:space="preserve" font-family="HelveticaNeue-LightItalic,Helvetica Neue" font-style="italic" font-size="24.0" fill="#FEFFFF" transform="matrix(1.00, 0.00, -0.00, -1.00, 83.9, 5.9)">l</text><text xml:space="preserve" font-family="HelveticaNeue-LightItalic,Helvetica Neue" font-style="italic" font-size="24.0" fill="#FEFFFF" transform="matrix(1.00, 0.00, -0.00, -1.00, 88.3, 5.9)"> </text><text xml:space="preserve" font-family="HelveticaNeue-LightItalic,Helvetica Neue" font-style="italic" font-size="24.0" fill="#FEFFFF" transform="matrix(1.00, 0.00, -0.00, -1.00, 95.0, 5.9)">L</text><text xml:space="preserve" font-family="HelveticaNeue-LightItalic,Helvetica Neue" font-style="italic" font-size="24.0" fill="#FEFFFF" transform="matrix(1.00, 0.00, -0.00, -1.00, 107.9, 5.9)">.</text><text xml:space="preserve" font-family="HelveticaNeue-LightItalic,Helvetica Neue" font-style="italic" font-size="24.0" fill="#FEFFFF" transform="matrix(1.00, 0.00, -0.00, -1.00, 114.6, 5.9)"> </text><text xml:space="preserve" font-family="HelveticaNeue-LightItalic,Helvetica Neue" font-style="italic" font-size="24.0" fill="#FEFFFF" transform="matrix(1.00, 0.00, -0.00, -1.00, 121.2, 5.9)">S</text><text xml:space="preserve" font-family="HelveticaNeue-LightItalic,Helvetica Neue" font-style="italic" font-size="24.0" fill="#FEFFFF" transform="matrix(1.00, 0.00, -0.00, -1.00, 136.3, 5.9)">c</text><text xml:space="preserve" font-family="HelveticaNeue-LightItalic,Helvetica Neue" font-style="italic" font-size="24.0" fill="#FEFFFF" transform="matrix(1.00, 0.00, -0.00, -1.00, 148.8, 5.9)">h</text><text xml:space="preserve" font-family="HelveticaNeue-LightItalic,Helvetica Neue" font-style="italic" font-size="24.0" fill="#FEFFFF" transform="matrix(1.00, 0.00, -0.00, -1.00, 161.7, 5.9)">w</text><text xml:space="preserve" font-family="HelveticaNeue-LightItalic,Helvetica Neue" font-style="italic" font-size="24.0" fill="#FEFFFF" transform="matrix(1.00, 0.00, -0.00, -1.00, 179.5, 5.9)">a</text><text xml:space="preserve" font-family="HelveticaNeue-LightItalic,Helvetica Neue" font-style="italic" font-size="24.0" fill="#FEFFFF" transform="matrix(1.00, 0.00, -0.00, -1.00, 191.9, 5.9)">r</text><text xml:space="preserve" font-family="HelveticaNeue-LightItalic,Helvetica Neue" font-style="italic" font-size="24.0" fill="#FEFFFF" transform="matrix(1.00, 0.00, -0.00, -1.00, 199.5, 5.9)">t</text><text xml:space="preserve" font-family="HelveticaNeue-LightItalic,Helvetica Neue" font-style="italic" font-size="24.0" fill="#FEFFFF" transform="matrix(1.00, 0.00, -0.00, -1.00, 206.6, 5.9)">z</text><text xml:space="preserve" font-family="HelveticaNeue-LightItalic,Helvetica Neue" font-style="italic" font-size="24.0" fill="#FEFFFF" transform="matrix(1.00, 0.00, -0.00, -1.00, 216.8, 5.9)">,</text><text xml:space="preserve" font-family="HelveticaNeue-LightItalic,Helvetica Neue" font-style="italic" font-size="24.0" fill="#FEFFFF" transform="matrix(1.00, 0.00, -0.00, -1.00, 223.5, 5.9)"> </text><text xml:space="preserve" font-family="HelveticaNeue-LightItalic,Helvetica Neue" font-style="italic" font-size="24.0" fill="#FEFFFF" transform="matrix(1.00, 0.00, -0.00, -1.00, 230.2, 5.9)">c</text><text xml:space="preserve" font-family="HelveticaNeue-LightItalic,Helvetica Neue" font-style="italic" font-size="24.0" fill="#FEFFFF" transform="matrix(1.00, 0.00, -0.00, -1.00, 242.6, 5.9)">o</text><text xml:space="preserve" font-family="HelveticaNeue-LightItalic,Helvetica Neue" font-style="italic" font-size="24.0" fill="#FEFFFF" transform="matrix(1.00, 0.00, -0.00, -1.00, 256.0, 5.9)">m</text><text xml:space="preserve" font-family="HelveticaNeue-LightItalic,Helvetica Neue" font-style="italic" font-size="24.0" fill="#FEFFFF" transform="matrix(1.00, 0.00, -0.00, -1.00, 276.0, 5.9)">p</text><text xml:space="preserve" font-family="HelveticaNeue-LightItalic,Helvetica Neue" font-style="italic" font-size="24.0" fill="#FEFFFF" transform="matrix(1.00, 0.00, -0.00, -1.00, 289.7, 5.9)">.</text><text xml:space="preserve" font-family="HelveticaNeue-LightItalic,Helvetica Neue" font-style="italic" font-size="24.0" fill="#FEFFFF" transform="matrix(1.00, 0.00, -0.00, -1.00, 296.4, 5.9)">u</text><text xml:space="preserve" font-family="HelveticaNeue-LightItalic,Helvetica Neue" font-style="italic" font-size="24.0" fill="#FEFFFF" transform="matrix(1.00, 0.00, -0.00, -1.00, 309.3, 5.9)">n</text><text xml:space="preserve" font-family="HelveticaNeue-LightItalic,Helvetica Neue" font-style="italic" font-size="24.0" fill="#FEFFFF" transform="matrix(1.00, 0.00, -0.00, -1.00, 322.2, 5.9)">i</text><text xml:space="preserve" font-family="HelveticaNeue-LightItalic,Helvetica Neue" font-style="italic" font-size="24.0" fill="#FEFFFF" transform="matrix(1.00, 0.00, -0.00, -1.00, 326.6, 5.9)">x</text><text xml:space="preserve" font-family="HelveticaNeue-LightItalic,Helvetica Neue" font-style="italic" font-size="24.0" fill="#FEFFFF" transform="matrix(1.00, 0.00, -0.00, -1.00, 337.7, 5.9)">.</text><text xml:space="preserve" font-family="HelveticaNeue-LightItalic,Helvetica Neue" font-style="italic" font-size="24.0" fill="#FEFFFF" transform="matrix(1.00, 0.00, -0.00, -1.00, 344.4, 5.9)">s</text><text xml:space="preserve" font-family="HelveticaNeue-LightItalic,Helvetica Neue" font-style="italic" font-size="24.0" fill="#FEFFFF" transform="matrix(1.00, 0.00, -0.00, -1.00, 355.9, 5.9)">h</text><text xml:space="preserve" font-family="HelveticaNeue-LightItalic,Helvetica Neue" font-style="italic" font-size="24.0" fill="#FEFFFF" transform="matrix(1.00, 0.00, -0.00, -1.00, 368.8, 5.9)">e</text><text xml:space="preserve" font-family="HelveticaNeue-LightItalic,Helvetica Neue" font-style="italic" font-size="24.0" fill="#FEFFFF" transform="matrix(1.00, 0.00, -0.00, -1.00, 381.3, 5.9)">l</text><text xml:space="preserve" font-family="HelveticaNeue-LightItalic,Helvetica Neue" font-style="italic" font-size="24.0" fill="#FEFFFF" transform="matrix(1.00, 0.00, -0.00, -1.00, 385.7, 5.9)">l</text><text xml:space="preserve" font-family="HelveticaNeue-LightItalic,Helvetica Neue" font-style="italic" font-size="24.0" fill="#FEFFFF" transform="matrix(1.00, 0.00, -0.00, -1.00, 390.2, 5.9)">,</text><text xml:space="preserve" font-family="HelveticaNeue-LightItalic,Helvetica Neue" font-style="italic" font-size="24.0" fill="#FEFFFF" transform="matrix(1.00, 0.00, -0.00, -1.00, 396.8, 5.9)"> </text><text xml:space="preserve" font-family="HelveticaNeue-LightItalic,Helvetica Neue" font-style="italic" font-size="24.0" fill="#FEFFFF" transform="matrix(1.00, 0.00, -0.00, -1.00, 403.5, 5.9)">D</text><text xml:space="preserve" font-family="HelveticaNeue-LightItalic,Helvetica Neue" font-style="italic" font-size="24.0" fill="#FEFFFF" transform="matrix(1.00, 0.00, -0.00, -1.00, 420.0, 5.9)">e</text><text xml:space="preserve" font-family="HelveticaNeue-LightItalic,Helvetica Neue" font-style="italic" font-size="24.0" fill="#FEFFFF" transform="matrix(1.00, 0.00, -0.00, -1.00, 432.4, 5.9)">c</text><text xml:space="preserve" font-family="HelveticaNeue-LightItalic,Helvetica Neue" font-style="italic" font-size="24.0" fill="#FEFFFF" transform="matrix(1.00, 0.00, -0.00, -1.00, 444.9, 5.9)"> </text><text xml:space="preserve" font-family="HelveticaNeue-LightItalic,Helvetica Neue" font-style="italic" font-size="24.0" fill="#FEFFFF" transform="matrix(1.00, 0.00, -0.00, -1.00, 451.5, 5.9)">1</text><text xml:space="preserve" font-family="HelveticaNeue-LightItalic,Helvetica Neue" font-style="italic" font-size="24.0" fill="#FEFFFF" transform="matrix(1.00, 0.00, -0.00, -1.00, 464.9, 5.9)">6</text><text xml:space="preserve" font-family="HelveticaNeue-LightItalic,Helvetica Neue" font-style="italic" font-size="24.0" fill="#FEFFFF" transform="matrix(1.00, 0.00, -0.00, -1.00, 478.2, 5.9)">,</text><text xml:space="preserve" font-family="HelveticaNeue-LightItalic,Helvetica Neue" font-style="italic" font-size="24.0" fill="#FEFFFF" transform="matrix(1.00, 0.00, -0.00, -1.00, 484.9, 5.9)"> </text><text xml:space="preserve" font-family="HelveticaNeue-LightItalic,Helvetica Neue" font-style="italic" font-size="24.0" fill="#FEFFFF" transform="matrix(1.00, 0.00, -0.00, -1.00, 491.6, 5.9)">1</text><text xml:space="preserve" font-family="HelveticaNeue-LightItalic,Helvetica Neue" font-style="italic" font-size="24.0" fill="#FEFFFF" transform="matrix(1.00, 0.00, -0.00, -1.00, 504.9, 5.9)">9</text><text xml:space="preserve" font-family="HelveticaNeue-LightItalic,Helvetica Neue" font-style="italic" font-size="24.0" fill="#FEFFFF" transform="matrix(1.00, 0.00, -0.00, -1.00, 518.3, 5.9)">9</text><text xml:space="preserve" font-family="HelveticaNeue-LightItalic,Helvetica Neue" font-style="italic" font-size="24.0" fill="#FEFFFF" transform="matrix(1.00, 0.00, -0.00, -1.00, 531.6, 5.9)">4</text></g></svg>