<?xml version="1.0" encoding="UTF-8" standalone="no"?><svg xmlns="http://www.w3.org/2000/svg" xmlns:xlink="http://www.w3.org/1999/xlink" clip-rule="evenodd" stroke-miterlimit="10" viewBox="0 0 387 31"><desc>SVG generated by Keynote</desc><defs></defs><g transform="matrix(1.00, 0.00, -0.00, -1.00, 0.0, 31.0)"><path d="M 226.1 34.9 L 242.3 34.9 L 242.3 -1.1 L 226.1 -1.1 Z M 226.1 34.9 " fill="#000000"></path><path d="M 339.5 34.9 L 355.7 34.9 L 355.7 -1.1 L 339.5 -1.1 Z M 339.5 34.9 " fill="#000000"></path><text xml:space="preserve" font-family="Monaco,Monaco" font-size="27.0" fill="#FFFFFF" transform="matrix(1.00, 0.00, -0.00, -1.00, -0.7, 7.9)">(</text><text xml:space="preserve" font-family="Monaco,Monaco" font-size="27.0" fill="#FFFFFF" transform="matrix(1.00, 0.00, -0.00, -1.00, 15.5, 7.9)">m</text><text xml:space="preserve" font-family="Monaco,Monaco" font-size="27.0" fill="#FFFFFF" transform="matrix(1.00, 0.00, -0.00, -1.00, 31.7, 7.9)">a</text><text xml:space="preserve" font-family="Monaco,Monaco" font-size="27.0" fill="#FFFFFF" transform="matrix(1.00, 0.00, -0.00, -1.00, 47.9, 7.9)">p</text><text xml:space="preserve" font-family="Monaco,Monaco" font-size="27.0" fill="#FFFFFF" transform="matrix(1.00, 0.00, -0.00, -1.00, 64.1, 7.9)"> </text><text xml:space="preserve" font-family="Monaco,Monaco" font-size="27.0" fill="#FFFFFF" transform="matrix(1.00, 0.00, -0.00, -1.00, 80.3, 7.9)">#</text><text xml:space="preserve" font-family="Monaco,Monaco" font-size="27.0" fill="#FFFFFF" transform="matrix(1.00, 0.00, -0.00, -1.00, 96.5, 7.9)">(</text><text xml:space="preserve" font-family="Monaco,Monaco" font-size="27.0" fill="#FFFFFF" transform="matrix(1.00, 0.00, -0.00, -1.00, 112.7, 7.9)">v</text><text xml:space="preserve" font-family="Monaco,Monaco" font-size="27.0" fill="#FFFFFF" transform="matrix(1.00, 0.00, -0.00, -1.00, 128.9, 7.9)">e</text><text xml:space="preserve" font-family="Monaco,Monaco" font-size="27.0" fill="#FFFFFF" transform="matrix(1.00, 0.00, -0.00, -1.00, 145.1, 7.9)">c</text><text xml:space="preserve" font-family="Monaco,Monaco" font-size="27.0" fill="#FFFFFF" transform="matrix(1.00, 0.00, -0.00, -1.00, 161.3, 7.9)">t</text><text xml:space="preserve" font-family="Monaco,Monaco" font-size="27.0" fill="#FFFFFF" transform="matrix(1.00, 0.00, -0.00, -1.00, 177.5, 7.9)">o</text><text xml:space="preserve" font-family="Monaco,Monaco" font-size="27.0" fill="#FFFFFF" transform="matrix(1.00, 0.00, -0.00, -1.00, 193.7, 7.9)">r</text><text xml:space="preserve" font-family="Monaco,Monaco" font-size="27.0" fill="#FFFFFF" transform="matrix(1.00, 0.00, -0.00, -1.00, 209.9, 7.9)"> </text><text xml:space="preserve" font-family="Monaco,Monaco" font-size="27.0" fill="#A9CAEB" transform="matrix(1.00, 0.00, -0.00, -1.00, 226.1, 7.9)">%</text><text xml:space="preserve" font-family="Monaco,Monaco" font-size="27.0" fill="#FFFFFF" transform="matrix(1.00, 0.00, -0.00, -1.00, 242.3, 7.9)"> </text><text xml:space="preserve" font-family="Monaco,Monaco" font-size="27.0" fill="#FFFFFF" transform="matrix(1.00, 0.00, -0.00, -1.00, 258.5, 7.9)">(</text><text xml:space="preserve" font-family="Monaco,Monaco" font-size="27.0" fill="#FFFFFF" transform="matrix(1.00, 0.00, -0.00, -1.00, 274.7, 7.9)">f</text><text xml:space="preserve" font-family="Monaco,Monaco" font-size="27.0" fill="#FFFFFF" transform="matrix(1.00, 0.00, -0.00, -1.00, 290.9, 7.9)">o</text><text xml:space="preserve" font-family="Monaco,Monaco" font-size="27.0" fill="#FFFFFF" transform="matrix(1.00, 0.00, -0.00, -1.00, 307.1, 7.9)">o</text><text xml:space="preserve" font-family="Monaco,Monaco" font-size="27.0" fill="#FFFFFF" transform="matrix(1.00, 0.00, -0.00, -1.00, 323.3, 7.9)"> </text><text xml:space="preserve" font-family="Monaco,Monaco" font-size="27.0" fill="#A9CAEB" transform="matrix(1.00, 0.00, -0.00, -1.00, 339.5, 7.9)">%</text><text xml:space="preserve" font-family="Monaco,Monaco" font-size="27.0" fill="#FFFFFF" transform="matrix(1.00, 0.00, -0.00, -1.00, 355.7, 7.9)">)</text><text xml:space="preserve" font-family="Monaco,Monaco" font-size="27.0" fill="#FFFFFF" transform="matrix(1.00, 0.00, -0.00, -1.00, 371.9, 7.9)">)</text></g></svg>