<?xml version="1.0" encoding="UTF-8" standalone="no"?><svg xmlns="http://www.w3.org/2000/svg" xmlns:xlink="http://www.w3.org/1999/xlink" clip-rule="evenodd" stroke-miterlimit="10" viewBox="0 0 1024 768"><desc>SVG generated by Keynote</desc><defs></defs><g transform="matrix(1.00, 0.00, -0.00, -1.00, 0.0, 768.0)"><path d="M 0.0 768.0 L 1024.0 768.0 L 1024.0 0.0 L 0.0 0.0 Z M 0.0 768.0 " fill="#000000"></path><g><clipPath id="clip0x7fae5a2dd2c0"><path d="M 262.8 418.3 L 869.5 418.3 L 869.5 463.3 L 262.8 463.3 Z M 262.8 418.3 "></path></clipPath><g clip-path="url(#clip0x7fae5a2dd2c0)"><path d="M 274.0 463.3 L 857.3 463.3 L 857.3 415.3 L 274.0 415.3 Z M 274.0 463.3 " fill="#000000"></path></g></g><text xml:space="preserve" font-family="Monaco,Monaco" font-size="36.0" fill="#FFFFFF" transform="matrix(1.00, 0.00, -0.00, -1.00, 274.0, 427.3)">(</text><text xml:space="preserve" font-family="Monaco,Monaco" font-size="36.0" fill="#C5B3FD" transform="matrix(1.00, 0.00, -0.00, -1.00, 295.6, 427.3)">0</text><text xml:space="preserve" font-family="Monaco,Monaco" font-size="36.0" fill="#FFFFFF" transform="matrix(1.00, 0.00, -0.00, -1.00, 317.2, 427.3)"> </text><text xml:space="preserve" font-family="Monaco,Monaco" font-size="36.0" fill="#FFFFFF" transform="matrix(1.00, 0.00, -0.00, -1.00, 338.8, 427.3)">/</text><text xml:space="preserve" font-family="Monaco,Monaco" font-size="36.0" fill="#FFFFFF" transform="matrix(1.00, 0.00, -0.00, -1.00, 360.4, 427.3)">:</text><text xml:space="preserve" font-family="Monaco,Monaco" font-size="36.0" fill="#FFFFFF" transform="matrix(1.00, 0.00, -0.00, -1.00, 382.0, 427.3)"> </text><text xml:space="preserve" font-family="Monaco,Monaco" font-size="36.0" fill="#FFFFFF" transform="matrix(1.00, 0.00, -0.00, -1.00, 403.6, 427.3)">(</text><text xml:space="preserve" font-family="Monaco,Monaco" font-size="36.0" fill="#C5B3FD" transform="matrix(1.00, 0.00, -0.00, -1.00, 425.2, 427.3)">0</text><text xml:space="preserve" font-family="Monaco,Monaco" font-size="36.0" fill="#FFFFFF" transform="matrix(1.00, 0.00, -0.00, -1.00, 446.8, 427.3)"> </text><text xml:space="preserve" font-family="Monaco,Monaco" font-size="36.0" fill="#FFFFFF" transform="matrix(1.00, 0.00, -0.00, -1.00, 468.4, 427.3)">u</text><text xml:space="preserve" font-family="Monaco,Monaco" font-size="36.0" fill="#FFFFFF" transform="matrix(1.00, 0.00, -0.00, -1.00, 490.0, 427.3)">n</text><text xml:space="preserve" font-family="Monaco,Monaco" font-size="36.0" fill="#FFFFFF" transform="matrix(1.00, 0.00, -0.00, -1.00, 511.6, 427.3)">t</text><text xml:space="preserve" font-family="Monaco,Monaco" font-size="36.0" fill="#FFFFFF" transform="matrix(1.00, 0.00, -0.00, -1.00, 533.3, 427.3)">i</text><text xml:space="preserve" font-family="Monaco,Monaco" font-size="36.0" fill="#FFFFFF" transform="matrix(1.00, 0.00, -0.00, -1.00, 554.9, 427.3)">l</text><text xml:space="preserve" font-family="Monaco,Monaco" font-size="36.0" fill="#FFFFFF" transform="matrix(1.00, 0.00, -0.00, -1.00, 576.5, 427.3)"> </text><text xml:space="preserve" font-family="Monaco,Monaco" font-size="36.0" fill="#C5B3FD" transform="matrix(1.00, 0.00, -0.00, -1.00, 598.1, 427.3)">1</text><text xml:space="preserve" font-family="Monaco,Monaco" font-size="36.0" fill="#C5B3FD" transform="matrix(1.00, 0.00, -0.00, -1.00, 619.7, 427.3)">0</text><text xml:space="preserve" font-family="Monaco,Monaco" font-size="36.0" fill="#C5B3FD" transform="matrix(1.00, 0.00, -0.00, -1.00, 641.3, 427.3)">0</text><text xml:space="preserve" font-family="Monaco,Monaco" font-size="36.0" fill="#FFFFFF" transform="matrix(1.00, 0.00, -0.00, -1.00, 662.9, 427.3)">)</text><text xml:space="preserve" font-family="Monaco,Monaco" font-size="36.0" fill="#FFFFFF" transform="matrix(1.00, 0.00, -0.00, -1.00, 684.5, 427.3)">)</text><text xml:space="preserve" font-family="Monaco,Monaco" font-size="36.0" fill="#FFFFFF" transform="matrix(1.00, 0.00, -0.00, -1.00, 706.1, 427.3)">(</text><text xml:space="preserve" font-family="Monaco,Monaco" font-size="36.0" fill="#B4E4C5" transform="matrix(1.00, 0.00, -0.00, -1.00, 727.7, 427.3)">_</text><text xml:space="preserve" font-family="Monaco,Monaco" font-size="36.0" fill="#FFFFFF" transform="matrix(1.00, 0.00, -0.00, -1.00, 749.3, 427.3)"> </text><text xml:space="preserve" font-family="Monaco,Monaco" font-size="36.0" fill="#FFFFFF" transform="matrix(1.00, 0.00, -0.00, -1.00, 770.9, 427.3)">+</text><text xml:space="preserve" font-family="Monaco,Monaco" font-size="36.0" fill="#FFFFFF" transform="matrix(1.00, 0.00, -0.00, -1.00, 792.5, 427.3)"> </text><text xml:space="preserve" font-family="Monaco,Monaco" font-size="36.0" fill="#B4E4C5" transform="matrix(1.00, 0.00, -0.00, -1.00, 814.1, 427.3)">_</text><text xml:space="preserve" font-family="Monaco,Monaco" font-size="36.0" fill="#FFFFFF" transform="matrix(1.00, 0.00, -0.00, -1.00, 835.7, 427.3)">)</text></g></svg>