<?xml version="1.0" encoding="UTF-8" standalone="no"?><svg xmlns="http://www.w3.org/2000/svg" xmlns:xlink="http://www.w3.org/1999/xlink" clip-rule="evenodd" stroke-miterlimit="10" viewBox="0 0 242 32"><desc>SVG generated by Keynote</desc><defs></defs><g transform="matrix(1.00, 0.00, -0.00, -1.00, 0.0, 32.0)"><path d="M -259.8 71.9 L -211.2 71.9 L -211.2 35.9 L -259.8 35.9 Z M -259.8 71.9 " fill="#000000"></path><path d="M -195.0 71.9 L -97.8 71.9 L -97.8 35.9 L -195.0 35.9 Z M -195.0 71.9 " fill="#000000"></path><path d="M 372.1 -0.1 L 388.3 -0.1 L 388.3 -36.1 L 372.1 -36.1 Z M 372.1 -0.1 " fill="#000000"></path><path d="M 485.5 -0.1 L 501.7 -0.1 L 501.7 -36.1 L 485.5 -36.1 Z M 485.5 -0.1 " fill="#000000"></path><text xml:space="preserve" font-family="Monaco,Monaco" font-size="27.0" fill="#FFFFFF" transform="matrix(1.00, 0.00, -0.00, -1.00, -0.6, 8.9)">(</text><text xml:space="preserve" font-family="Monaco,Monaco" font-size="27.0" fill="#FFFFFF" transform="matrix(1.00, 0.00, -0.00, -1.00, 15.7, 8.9)">s</text><text xml:space="preserve" font-family="Monaco,Monaco" font-size="27.0" fill="#FFFFFF" transform="matrix(1.00, 0.00, -0.00, -1.00, 31.9, 8.9)">o</text><text xml:space="preserve" font-family="Monaco,Monaco" font-size="27.0" fill="#FFFFFF" transform="matrix(1.00, 0.00, -0.00, -1.00, 48.1, 8.9)">r</text><text xml:space="preserve" font-family="Monaco,Monaco" font-size="27.0" fill="#FFFFFF" transform="matrix(1.00, 0.00, -0.00, -1.00, 64.3, 8.9)">t</text><text xml:space="preserve" font-family="Monaco,Monaco" font-size="27.0" fill="#FFFFFF" transform="matrix(1.00, 0.00, -0.00, -1.00, 80.5, 8.9)">-</text><text xml:space="preserve" font-family="Monaco,Monaco" font-size="27.0" fill="#FFFFFF" transform="matrix(1.00, 0.00, -0.00, -1.00, 96.7, 8.9)">b</text><text xml:space="preserve" font-family="Monaco,Monaco" font-size="27.0" fill="#FFFFFF" transform="matrix(1.00, 0.00, -0.00, -1.00, 112.9, 8.9)">y</text><text xml:space="preserve" font-family="Monaco,Monaco" font-size="27.0" fill="#FFFFFF" transform="matrix(1.00, 0.00, -0.00, -1.00, 129.1, 8.9)"> </text><text xml:space="preserve" font-family="Monaco,Monaco" font-size="27.0" fill="#FFFFFF" transform="matrix(1.00, 0.00, -0.00, -1.00, 145.3, 8.9)">s</text><text xml:space="preserve" font-family="Monaco,Monaco" font-size="27.0" fill="#FFFFFF" transform="matrix(1.00, 0.00, -0.00, -1.00, 161.5, 8.9)">e</text><text xml:space="preserve" font-family="Monaco,Monaco" font-size="27.0" fill="#FFFFFF" transform="matrix(1.00, 0.00, -0.00, -1.00, 177.7, 8.9)">c</text><text xml:space="preserve" font-family="Monaco,Monaco" font-size="27.0" fill="#FFFFFF" transform="matrix(1.00, 0.00, -0.00, -1.00, 193.9, 8.9)">o</text><text xml:space="preserve" font-family="Monaco,Monaco" font-size="27.0" fill="#FFFFFF" transform="matrix(1.00, 0.00, -0.00, -1.00, 210.1, 8.9)">n</text><text xml:space="preserve" font-family="Monaco,Monaco" font-size="27.0" fill="#FFFFFF" transform="matrix(1.00, 0.00, -0.00, -1.00, 226.3, 8.9)">d</text></g></svg>