<?xml version="1.0" encoding="UTF-8" standalone="no"?><svg xmlns="http://www.w3.org/2000/svg" xmlns:xlink="http://www.w3.org/1999/xlink" clip-rule="evenodd" stroke-miterlimit="10" viewBox="0 0 193 30"><desc>SVG generated by Keynote</desc><defs></defs><g transform="matrix(1.00, 0.00, -0.00, -1.00, 0.0, 30.0)"><path d="M 145.1 69.9 L 161.3 69.9 L 161.3 33.9 L 145.1 33.9 Z M 145.1 69.9 " fill="#000000"></path><path d="M 258.5 69.9 L 274.7 69.9 L 274.7 33.9 L 258.5 33.9 Z M 258.5 69.9 " fill="#000000"></path><text xml:space="preserve" font-family="Monaco,Monaco" font-size="27.0" fill="#FFFFFF" transform="matrix(1.00, 0.00, -0.00, -1.00, -0.7, 6.9)">u</text><text xml:space="preserve" font-family="Monaco,Monaco" font-size="27.0" fill="#FFFFFF" transform="matrix(1.00, 0.00, -0.00, -1.00, 15.5, 6.9)">n</text><text xml:space="preserve" font-family="Monaco,Monaco" font-size="27.0" fill="#FFFFFF" transform="matrix(1.00, 0.00, -0.00, -1.00, 31.7, 6.9)">s</text><text xml:space="preserve" font-family="Monaco,Monaco" font-size="27.0" fill="#FFFFFF" transform="matrix(1.00, 0.00, -0.00, -1.00, 47.9, 6.9)">o</text><text xml:space="preserve" font-family="Monaco,Monaco" font-size="27.0" fill="#FFFFFF" transform="matrix(1.00, 0.00, -0.00, -1.00, 64.1, 6.9)">r</text><text xml:space="preserve" font-family="Monaco,Monaco" font-size="27.0" fill="#FFFFFF" transform="matrix(1.00, 0.00, -0.00, -1.00, 80.3, 6.9)">t</text><text xml:space="preserve" font-family="Monaco,Monaco" font-size="27.0" fill="#FFFFFF" transform="matrix(1.00, 0.00, -0.00, -1.00, 96.5, 6.9)">e</text><text xml:space="preserve" font-family="Monaco,Monaco" font-size="27.0" fill="#FFFFFF" transform="matrix(1.00, 0.00, -0.00, -1.00, 112.7, 6.9)">d</text><text xml:space="preserve" font-family="Monaco,Monaco" font-size="27.0" fill="#FFFFFF" transform="matrix(1.00, 0.00, -0.00, -1.00, 128.9, 6.9)">)</text><text xml:space="preserve" font-family="Monaco,Monaco" font-size="27.0" fill="#FFFFFF" transform="matrix(1.00, 0.00, -0.00, -1.00, 145.1, 6.9)">)</text><text xml:space="preserve" font-family="Monaco,Monaco" font-size="27.0" fill="#FFFFFF" transform="matrix(1.00, 0.00, -0.00, -1.00, 161.3, 6.9)">)</text><text xml:space="preserve" font-family="Monaco,Monaco" font-size="27.0" fill="#FFFFFF" transform="matrix(1.00, 0.00, -0.00, -1.00, 177.5, 6.9)">)</text></g></svg>