<?xml version="1.0" encoding="UTF-8" standalone="no"?><svg xmlns="http://www.w3.org/2000/svg" xmlns:xlink="http://www.w3.org/1999/xlink" clip-rule="evenodd" stroke-miterlimit="10" viewBox="0 0 473 41"><desc>SVG generated by Keynote</desc><defs></defs><g transform="matrix(1.00, 0.00, -0.00, -1.00, 0.0, 41.0)"><text xml:space="preserve" font-family="Monaco,Monaco" font-size="36.0" fill="#FEFFFF" transform="matrix(1.00, 0.00, -0.00, -1.00, -0.6, 10.6)">(</text><text xml:space="preserve" font-family="Monaco,Monaco" font-size="36.0" fill="#FEFFFF" transform="matrix(1.00, 0.00, -0.00, -1.00, 21.0, 10.6)">r</text><text xml:space="preserve" font-family="Monaco,Monaco" font-size="36.0" fill="#FEFFFF" transform="matrix(1.00, 0.00, -0.00, -1.00, 42.6, 10.6)">e</text><text xml:space="preserve" font-family="Monaco,Monaco" font-size="36.0" fill="#FEFFFF" transform="matrix(1.00, 0.00, -0.00, -1.00, 64.2, 10.6)">d</text><text xml:space="preserve" font-family="Monaco,Monaco" font-size="36.0" fill="#FEFFFF" transform="matrix(1.00, 0.00, -0.00, -1.00, 85.8, 10.6)">u</text><text xml:space="preserve" font-family="Monaco,Monaco" font-size="36.0" fill="#FEFFFF" transform="matrix(1.00, 0.00, -0.00, -1.00, 107.4, 10.6)">c</text><text xml:space="preserve" font-family="Monaco,Monaco" font-size="36.0" fill="#FEFFFF" transform="matrix(1.00, 0.00, -0.00, -1.00, 129.0, 10.6)">e</text><text xml:space="preserve" font-family="Monaco,Monaco" font-size="36.0" fill="#FEFFFF" transform="matrix(1.00, 0.00, -0.00, -1.00, 150.6, 10.6)"> </text><text xml:space="preserve" font-family="Monaco,Monaco" font-size="36.0" fill="#FEFFFF" transform="matrix(1.00, 0.00, -0.00, -1.00, 172.2, 10.6)">+</text><text xml:space="preserve" font-family="Monaco,Monaco" font-size="36.0" fill="#FEFFFF" transform="matrix(1.00, 0.00, -0.00, -1.00, 193.8, 10.6)"> </text><text xml:space="preserve" font-family="Monaco,Monaco" font-size="36.0" fill="#FEFFFF" transform="matrix(1.00, 0.00, -0.00, -1.00, 215.4, 10.6)">(</text><text xml:space="preserve" font-family="Monaco,Monaco" font-size="36.0" fill="#FEFFFF" transform="matrix(1.00, 0.00, -0.00, -1.00, 237.0, 10.6)">r</text><text xml:space="preserve" font-family="Monaco,Monaco" font-size="36.0" fill="#FEFFFF" transform="matrix(1.00, 0.00, -0.00, -1.00, 258.6, 10.6)">a</text><text xml:space="preserve" font-family="Monaco,Monaco" font-size="36.0" fill="#FEFFFF" transform="matrix(1.00, 0.00, -0.00, -1.00, 280.3, 10.6)">n</text><text xml:space="preserve" font-family="Monaco,Monaco" font-size="36.0" fill="#FEFFFF" transform="matrix(1.00, 0.00, -0.00, -1.00, 301.9, 10.6)">g</text><text xml:space="preserve" font-family="Monaco,Monaco" font-size="36.0" fill="#FEFFFF" transform="matrix(1.00, 0.00, -0.00, -1.00, 323.5, 10.6)">e</text><text xml:space="preserve" font-family="Monaco,Monaco" font-size="36.0" fill="#FEFFFF" transform="matrix(1.00, 0.00, -0.00, -1.00, 345.1, 10.6)"> </text><text xml:space="preserve" font-family="Monaco,Monaco" font-size="36.0" fill="#FEFFFF" transform="matrix(1.00, 0.00, -0.00, -1.00, 366.7, 10.6)">1</text><text xml:space="preserve" font-family="Monaco,Monaco" font-size="36.0" fill="#FEFFFF" transform="matrix(1.00, 0.00, -0.00, -1.00, 388.3, 10.6)">0</text><text xml:space="preserve" font-family="Monaco,Monaco" font-size="36.0" fill="#FEFFFF" transform="matrix(1.00, 0.00, -0.00, -1.00, 409.9, 10.6)">0</text><text xml:space="preserve" font-family="Monaco,Monaco" font-size="36.0" fill="#FEFFFF" transform="matrix(1.00, 0.00, -0.00, -1.00, 431.5, 10.6)">)</text><text xml:space="preserve" font-family="Monaco,Monaco" font-size="36.0" fill="#FEFFFF" transform="matrix(1.00, 0.00, -0.00, -1.00, 453.1, 10.6)">)</text></g></svg>