<?xml version="1.0" encoding="UTF-8" standalone="no"?><svg xmlns="http://www.w3.org/2000/svg" xmlns:xlink="http://www.w3.org/1999/xlink" clip-rule="evenodd" stroke-miterlimit="10" viewBox="0 0 1024 768"><desc>SVG generated by Keynote</desc><defs></defs><g transform="matrix(1.00, 0.00, -0.00, -1.00, 0.0, 768.0)"><path d="M 0.0 768.0 L 1024.0 768.0 L 1024.0 0.0 L 0.0 0.0 Z M 0.0 768.0 " fill="#000000"></path><text xml:space="preserve" font-family="HelveticaNeue-Light,Helvetica Neue" font-size="69.6" fill="#FEFFFF" transform="matrix(1.00, 0.00, -0.00, -1.00, 275.4, 565.8)">B</text><text xml:space="preserve" font-family="HelveticaNeue-Light,Helvetica Neue" font-size="69.6" fill="#FEFFFF" transform="matrix(1.00, 0.00, -0.00, -1.00, 321.8, 565.8)">r</text><text xml:space="preserve" font-family="HelveticaNeue-Light,Helvetica Neue" font-size="69.6" fill="#FEFFFF" transform="matrix(1.00, 0.00, -0.00, -1.00, 343.7, 565.8)">i</text><text xml:space="preserve" font-family="HelveticaNeue-Light,Helvetica Neue" font-size="69.6" fill="#FEFFFF" transform="matrix(1.00, 0.00, -0.00, -1.00, 356.6, 565.8)">n</text><text xml:space="preserve" font-family="HelveticaNeue-Light,Helvetica Neue" font-size="69.6" fill="#FEFFFF" transform="matrix(1.00, 0.00, -0.00, -1.00, 394.0, 565.8)">g</text><text xml:space="preserve" font-family="HelveticaNeue-Light,Helvetica Neue" font-size="69.6" fill="#FEFFFF" transform="matrix(1.00, 0.00, -0.00, -1.00, 432.7, 565.8)">i</text><text xml:space="preserve" font-family="HelveticaNeue-Light,Helvetica Neue" font-size="69.6" fill="#FEFFFF" transform="matrix(1.00, 0.00, -0.00, -1.00, 445.6, 565.8)">n</text><text xml:space="preserve" font-family="HelveticaNeue-Light,Helvetica Neue" font-size="69.6" fill="#FEFFFF" transform="matrix(1.00, 0.00, -0.00, -1.00, 482.9, 565.8)">g</text><text xml:space="preserve" font-family="HelveticaNeue-Light,Helvetica Neue" font-size="69.6" fill="#FEFFFF" transform="matrix(1.00, 0.00, -0.00, -1.00, 521.6, 565.8)"> </text><text xml:space="preserve" font-family="HelveticaNeue-Light,Helvetica Neue" font-size="69.6" fill="#FEFFFF" transform="matrix(1.00, 0.00, -0.00, -1.00, 541.0, 565.8)">C</text><text xml:space="preserve" font-family="HelveticaNeue-Light,Helvetica Neue" font-size="69.6" fill="#FEFFFF" transform="matrix(1.00, 0.00, -0.00, -1.00, 590.0, 565.8)">l</text><text xml:space="preserve" font-family="HelveticaNeue-Light,Helvetica Neue" font-size="69.6" fill="#FEFFFF" transform="matrix(1.00, 0.00, -0.00, -1.00, 602.9, 565.8)">o</text><text xml:space="preserve" font-family="HelveticaNeue-Light,Helvetica Neue" font-size="69.6" fill="#FEFFFF" transform="matrix(1.00, 0.00, -0.00, -1.00, 641.6, 565.8)">j</text><text xml:space="preserve" font-family="HelveticaNeue-Light,Helvetica Neue" font-size="69.6" fill="#FEFFFF" transform="matrix(1.00, 0.00, -0.00, -1.00, 654.4, 565.8)">u</text><text xml:space="preserve" font-family="HelveticaNeue-Light,Helvetica Neue" font-size="69.6" fill="#FEFFFF" transform="matrix(1.00, 0.00, -0.00, -1.00, 691.8, 565.8)">r</text><text xml:space="preserve" font-family="HelveticaNeue-Light,Helvetica Neue" font-size="69.6" fill="#FEFFFF" transform="matrix(1.00, 0.00, -0.00, -1.00, 712.5, 565.8)">e</text><text xml:space="preserve" font-family="HelveticaNeue-Light,Helvetica Neue" font-size="69.6" fill="#FEFFFF" transform="matrix(1.00, 0.00, -0.00, -1.00, 748.6, 565.8)"> </text><text xml:space="preserve" font-family="HelveticaNeue-Light,Helvetica Neue" font-size="69.6" fill="#FEFFFF" transform="matrix(1.00, 0.00, -0.00, -1.00, 768.0, 565.8)"> </text><text xml:space="preserve" font-family="HelveticaNeue-Light,Helvetica Neue" font-size="69.6" fill="#FEFFFF" transform="matrix(1.00, 0.00, -0.00, -1.00, 407.6, 481.8)">t</text><text xml:space="preserve" font-family="HelveticaNeue-Light,Helvetica Neue" font-size="69.6" fill="#FEFFFF" transform="matrix(1.00, 0.00, -0.00, -1.00, 428.2, 481.8)">o</text><text xml:space="preserve" font-family="HelveticaNeue-Light,Helvetica Neue" font-size="69.6" fill="#FEFFFF" transform="matrix(1.00, 0.00, -0.00, -1.00, 466.9, 481.8)"> </text><text xml:space="preserve" font-family="HelveticaNeue-Light,Helvetica Neue" font-size="69.6" fill="#FEFFFF" transform="matrix(1.00, 0.00, -0.00, -1.00, 486.2, 481.8)">y</text><text xml:space="preserve" font-family="HelveticaNeue-Light,Helvetica Neue" font-size="69.6" fill="#FEFFFF" transform="matrix(1.00, 0.00, -0.00, -1.00, 518.4, 481.8)">o</text><text xml:space="preserve" font-family="HelveticaNeue-Light,Helvetica Neue" font-size="69.6" fill="#FEFFFF" transform="matrix(1.00, 0.00, -0.00, -1.00, 557.1, 481.8)">u</text><text xml:space="preserve" font-family="HelveticaNeue-Light,Helvetica Neue" font-size="69.6" fill="#FEFFFF" transform="matrix(1.00, 0.00, -0.00, -1.00, 594.5, 481.8)">r</text><text xml:space="preserve" font-family="HelveticaNeue-Light,Helvetica Neue" font-size="69.6" fill="#FEFFFF" transform="matrix(1.00, 0.00, -0.00, -1.00, 616.4, 481.8)"> </text><text xml:space="preserve" font-family="HelveticaNeue-Light,Helvetica Neue" font-size="69.6" fill="#FEFFFF" transform="matrix(1.00, 0.00, -0.00, -1.00, 635.8, 481.8)"> </text><text xml:space="preserve" font-family="HelveticaNeue-Light,Helvetica Neue" font-size="69.6" fill="#FEFFFF" transform="matrix(1.00, 0.00, -0.00, -1.00, 329.6, 397.8)">o</text><text xml:space="preserve" font-family="HelveticaNeue-Light,Helvetica Neue" font-size="69.6" fill="#FEFFFF" transform="matrix(1.00, 0.00, -0.00, -1.00, 368.3, 397.8)">r</text><text xml:space="preserve" font-family="HelveticaNeue-Light,Helvetica Neue" font-size="69.6" fill="#FEFFFF" transform="matrix(1.00, 0.00, -0.00, -1.00, 390.2, 397.8)">g</text><text xml:space="preserve" font-family="HelveticaNeue-Light,Helvetica Neue" font-size="69.6" fill="#FEFFFF" transform="matrix(1.00, 0.00, -0.00, -1.00, 428.9, 397.8)">a</text><text xml:space="preserve" font-family="HelveticaNeue-Light,Helvetica Neue" font-size="69.6" fill="#FEFFFF" transform="matrix(1.00, 0.00, -0.00, -1.00, 465.0, 397.8)">n</text><text xml:space="preserve" font-family="HelveticaNeue-Light,Helvetica Neue" font-size="69.6" fill="#FEFFFF" transform="matrix(1.00, 0.00, -0.00, -1.00, 502.4, 397.8)">i</text><text xml:space="preserve" font-family="HelveticaNeue-Light,Helvetica Neue" font-size="69.6" fill="#FEFFFF" transform="matrix(1.00, 0.00, -0.00, -1.00, 515.3, 397.8)">s</text><text xml:space="preserve" font-family="HelveticaNeue-Light,Helvetica Neue" font-size="69.6" fill="#FEFFFF" transform="matrix(1.00, 0.00, -0.00, -1.00, 548.7, 397.8)">a</text><text xml:space="preserve" font-family="HelveticaNeue-Light,Helvetica Neue" font-size="69.6" fill="#FEFFFF" transform="matrix(1.00, 0.00, -0.00, -1.00, 584.9, 397.8)">t</text><text xml:space="preserve" font-family="HelveticaNeue-Light,Helvetica Neue" font-size="69.6" fill="#FEFFFF" transform="matrix(1.00, 0.00, -0.00, -1.00, 605.5, 397.8)">i</text><text xml:space="preserve" font-family="HelveticaNeue-Light,Helvetica Neue" font-size="69.6" fill="#FEFFFF" transform="matrix(1.00, 0.00, -0.00, -1.00, 618.3, 397.8)">o</text><text xml:space="preserve" font-family="HelveticaNeue-Light,Helvetica Neue" font-size="69.6" fill="#FEFFFF" transform="matrix(1.00, 0.00, -0.00, -1.00, 657.0, 397.8)">n</text><text xml:space="preserve" font-family="HelveticaNeue-Light,Helvetica Neue" font-size="32.0" fill="#FEFFFF" transform="matrix(1.00, 0.00, -0.00, -1.00, 434.7, 200.7)">E</text><text xml:space="preserve" font-family="HelveticaNeue-Light,Helvetica Neue" font-size="32.0" fill="#FEFFFF" transform="matrix(1.00, 0.00, -0.00, -1.00, 453.6, 200.7)">r</text><text xml:space="preserve" font-family="HelveticaNeue-Light,Helvetica Neue" font-size="32.0" fill="#FEFFFF" transform="matrix(1.00, 0.00, -0.00, -1.00, 463.7, 200.7)">i</text><text xml:space="preserve" font-family="HelveticaNeue-Light,Helvetica Neue" font-size="32.0" fill="#FEFFFF" transform="matrix(1.00, 0.00, -0.00, -1.00, 469.6, 200.7)">k</text><text xml:space="preserve" font-family="HelveticaNeue-Light,Helvetica Neue" font-size="32.0" fill="#FEFFFF" transform="matrix(1.00, 0.00, -0.00, -1.00, 485.6, 200.7)"> </text><text xml:space="preserve" font-family="HelveticaNeue-Light,Helvetica Neue" font-size="32.0" fill="#FEFFFF" transform="matrix(1.00, 0.00, -0.00, -1.00, 494.5, 200.7)">A</text><text xml:space="preserve" font-family="HelveticaNeue-Light,Helvetica Neue" font-size="32.0" fill="#FEFFFF" transform="matrix(1.00, 0.00, -0.00, -1.00, 514.7, 200.7)">s</text><text xml:space="preserve" font-family="HelveticaNeue-Light,Helvetica Neue" font-size="32.0" fill="#FEFFFF" transform="matrix(1.00, 0.00, -0.00, -1.00, 530.1, 200.7)">s</text><text xml:space="preserve" font-family="HelveticaNeue-Light,Helvetica Neue" font-size="32.0" fill="#FEFFFF" transform="matrix(1.00, 0.00, -0.00, -1.00, 545.5, 200.7)">u</text><text xml:space="preserve" font-family="HelveticaNeue-Light,Helvetica Neue" font-size="32.0" fill="#FEFFFF" transform="matrix(1.00, 0.00, -0.00, -1.00, 562.7, 200.7)">m</text><image xlink:href="../../335C028D-35DD-4075-96B0-EDB1255352D1/assets/B64CE47B9C31DCCE6C32C1F16D61AFA3.png" width="547.00" height="177.00" transform="matrix(0.27, 0.00, -0.00, -0.28, 437.0, 180.0)"></image></g></svg>