<?xml version="1.0" encoding="UTF-8" standalone="no"?><svg xmlns="http://www.w3.org/2000/svg" xmlns:xlink="http://www.w3.org/1999/xlink" clip-rule="evenodd" stroke-miterlimit="10" viewBox="0 0 1024 768"><desc>SVG generated by Keynote</desc><defs></defs><g transform="matrix(1.00, 0.00, -0.00, -1.00, 0.0, 768.0)"><path d="M 0.0 768.0 L 1024.0 768.0 L 1024.0 0.0 L 0.0 0.0 Z M 0.0 768.0 " fill="#000000"></path><path d="M 100.2 488.9 L 148.8 488.9 L 148.8 452.9 L 100.2 452.9 Z M 100.2 488.9 " fill="#000000"></path><path d="M 165.0 488.9 L 262.2 488.9 L 262.2 452.9 L 165.0 452.9 Z M 165.0 488.9 " fill="#000000"></path><path d="M 732.1 416.9 L 748.3 416.9 L 748.3 380.9 L 732.1 380.9 Z M 732.1 416.9 " fill="#000000"></path><path d="M 845.5 416.9 L 861.7 416.9 L 861.7 380.9 L 845.5 380.9 Z M 845.5 416.9 " fill="#000000"></path><text xml:space="preserve" font-family="Monaco,Monaco" font-size="27.0" fill="#FFFFFF" transform="matrix(1.00, 0.00, -0.00, -1.00, 84.0, 461.9)">(</text><text xml:space="preserve" font-family="Monaco,Monaco" font-size="27.0" fill="#B7E8CB" transform="matrix(1.00, 0.00, -0.00, -1.00, 100.2, 461.9)">d</text><text xml:space="preserve" font-family="Monaco,Monaco" font-size="27.0" fill="#B7E8CB" transform="matrix(1.00, 0.00, -0.00, -1.00, 116.4, 461.9)">e</text><text xml:space="preserve" font-family="Monaco,Monaco" font-size="27.0" fill="#B7E8CB" transform="matrix(1.00, 0.00, -0.00, -1.00, 132.6, 461.9)">f</text><text xml:space="preserve" font-family="Monaco,Monaco" font-size="27.0" fill="#FFFFFF" transform="matrix(1.00, 0.00, -0.00, -1.00, 148.8, 461.9)"> </text><text xml:space="preserve" font-family="Monaco,Monaco" font-size="27.0" fill="#A9CAEB" transform="matrix(1.00, 0.00, -0.00, -1.00, 165.0, 461.9)">s</text><text xml:space="preserve" font-family="Monaco,Monaco" font-size="27.0" fill="#A9CAEB" transform="matrix(1.00, 0.00, -0.00, -1.00, 181.2, 461.9)">o</text><text xml:space="preserve" font-family="Monaco,Monaco" font-size="27.0" fill="#A9CAEB" transform="matrix(1.00, 0.00, -0.00, -1.00, 197.4, 461.9)">r</text><text xml:space="preserve" font-family="Monaco,Monaco" font-size="27.0" fill="#A9CAEB" transform="matrix(1.00, 0.00, -0.00, -1.00, 213.6, 461.9)">t</text><text xml:space="preserve" font-family="Monaco,Monaco" font-size="27.0" fill="#A9CAEB" transform="matrix(1.00, 0.00, -0.00, -1.00, 229.8, 461.9)">e</text><text xml:space="preserve" font-family="Monaco,Monaco" font-size="27.0" fill="#A9CAEB" transform="matrix(1.00, 0.00, -0.00, -1.00, 246.0, 461.9)">d</text><text xml:space="preserve" font-family="Monaco,Monaco" font-size="27.0" fill="#FFFFFF" transform="matrix(1.00, 0.00, -0.00, -1.00, 262.2, 461.9)"> </text><text xml:space="preserve" font-family="Monaco,Monaco" font-size="27.0" fill="#FFFFFF" transform="matrix(1.00, 0.00, -0.00, -1.00, 278.4, 461.9)">(</text><text xml:space="preserve" font-family="Monaco,Monaco" font-size="27.0" fill="#FFFFFF" transform="matrix(1.00, 0.00, -0.00, -1.00, 294.6, 461.9)">m</text><text xml:space="preserve" font-family="Monaco,Monaco" font-size="27.0" fill="#FFFFFF" transform="matrix(1.00, 0.00, -0.00, -1.00, 310.8, 461.9)">a</text><text xml:space="preserve" font-family="Monaco,Monaco" font-size="27.0" fill="#FFFFFF" transform="matrix(1.00, 0.00, -0.00, -1.00, 327.1, 461.9)">p</text><text xml:space="preserve" font-family="Monaco,Monaco" font-size="27.0" fill="#FFFFFF" transform="matrix(1.00, 0.00, -0.00, -1.00, 343.3, 461.9)"> </text><text xml:space="preserve" font-family="Monaco,Monaco" font-size="27.0" fill="#FFFFFF" transform="matrix(1.00, 0.00, -0.00, -1.00, 359.5, 461.9)">f</text><text xml:space="preserve" font-family="Monaco,Monaco" font-size="27.0" fill="#FFFFFF" transform="matrix(1.00, 0.00, -0.00, -1.00, 375.7, 461.9)">i</text><text xml:space="preserve" font-family="Monaco,Monaco" font-size="27.0" fill="#FFFFFF" transform="matrix(1.00, 0.00, -0.00, -1.00, 391.9, 461.9)">r</text><text xml:space="preserve" font-family="Monaco,Monaco" font-size="27.0" fill="#FFFFFF" transform="matrix(1.00, 0.00, -0.00, -1.00, 408.1, 461.9)">s</text><text xml:space="preserve" font-family="Monaco,Monaco" font-size="27.0" fill="#FFFFFF" transform="matrix(1.00, 0.00, -0.00, -1.00, 424.3, 461.9)">t</text><text xml:space="preserve" font-family="Monaco,Monaco" font-size="27.0" fill="#FFFFFF" transform="matrix(1.00, 0.00, -0.00, -1.00, 84.0, 425.9)"> </text><text xml:space="preserve" font-family="Monaco,Monaco" font-size="27.0" fill="#FFFFFF" transform="matrix(1.00, 0.00, -0.00, -1.00, 100.2, 425.9)"> </text><text xml:space="preserve" font-family="Monaco,Monaco" font-size="27.0" fill="#FFFFFF" transform="matrix(1.00, 0.00, -0.00, -1.00, 116.4, 425.9)"> </text><text xml:space="preserve" font-family="Monaco,Monaco" font-size="27.0" fill="#FFFFFF" transform="matrix(1.00, 0.00, -0.00, -1.00, 132.6, 425.9)"> </text><text xml:space="preserve" font-family="Monaco,Monaco" font-size="27.0" fill="#FFFFFF" transform="matrix(1.00, 0.00, -0.00, -1.00, 148.8, 425.9)"> </text><text xml:space="preserve" font-family="Monaco,Monaco" font-size="27.0" fill="#FFFFFF" transform="matrix(1.00, 0.00, -0.00, -1.00, 165.0, 425.9)"> </text><text xml:space="preserve" font-family="Monaco,Monaco" font-size="27.0" fill="#FFFFFF" transform="matrix(1.00, 0.00, -0.00, -1.00, 181.2, 425.9)"> </text><text xml:space="preserve" font-family="Monaco,Monaco" font-size="27.0" fill="#FFFFFF" transform="matrix(1.00, 0.00, -0.00, -1.00, 197.4, 425.9)"> </text><text xml:space="preserve" font-family="Monaco,Monaco" font-size="27.0" fill="#FFFFFF" transform="matrix(1.00, 0.00, -0.00, -1.00, 213.6, 425.9)"> </text><text xml:space="preserve" font-family="Monaco,Monaco" font-size="27.0" fill="#FFFFFF" transform="matrix(1.00, 0.00, -0.00, -1.00, 229.8, 425.9)"> </text><text xml:space="preserve" font-family="Monaco,Monaco" font-size="27.0" fill="#FFFFFF" transform="matrix(1.00, 0.00, -0.00, -1.00, 246.1, 425.9)"> </text><text xml:space="preserve" font-family="Monaco,Monaco" font-size="27.0" fill="#FFFFFF" transform="matrix(1.00, 0.00, -0.00, -1.00, 262.3, 425.9)"> </text><text xml:space="preserve" font-family="Monaco,Monaco" font-size="27.0" fill="#FFFFFF" transform="matrix(1.00, 0.00, -0.00, -1.00, 278.5, 425.9)"> </text><text xml:space="preserve" font-family="Monaco,Monaco" font-size="27.0" fill="#FFFFFF" transform="matrix(1.00, 0.00, -0.00, -1.00, 294.7, 425.9)"> </text><text xml:space="preserve" font-family="Monaco,Monaco" font-size="27.0" fill="#FFFFFF" transform="matrix(1.00, 0.00, -0.00, -1.00, 310.9, 425.9)"> </text><text xml:space="preserve" font-family="Monaco,Monaco" font-size="27.0" fill="#FFFFFF" transform="matrix(1.00, 0.00, -0.00, -1.00, 327.1, 425.9)"> </text><text xml:space="preserve" font-family="Monaco,Monaco" font-size="27.0" fill="#FFFFFF" transform="matrix(1.00, 0.00, -0.00, -1.00, 343.3, 425.9)"> </text><text xml:space="preserve" font-family="Monaco,Monaco" font-size="27.0" fill="#FFFFFF" transform="matrix(1.00, 0.00, -0.00, -1.00, 359.5, 425.9)">(</text><text xml:space="preserve" font-family="Monaco,Monaco" font-size="27.0" fill="#FFFFFF" transform="matrix(1.00, 0.00, -0.00, -1.00, 375.7, 425.9)">s</text><text xml:space="preserve" font-family="Monaco,Monaco" font-size="27.0" fill="#FFFFFF" transform="matrix(1.00, 0.00, -0.00, -1.00, 391.9, 425.9)">o</text><text xml:space="preserve" font-family="Monaco,Monaco" font-size="27.0" fill="#FFFFFF" transform="matrix(1.00, 0.00, -0.00, -1.00, 408.1, 425.9)">r</text><text xml:space="preserve" font-family="Monaco,Monaco" font-size="27.0" fill="#FFFFFF" transform="matrix(1.00, 0.00, -0.00, -1.00, 424.3, 425.9)">t</text><text xml:space="preserve" font-family="Monaco,Monaco" font-size="27.0" fill="#FFFFFF" transform="matrix(1.00, 0.00, -0.00, -1.00, 440.5, 425.9)">-</text><text xml:space="preserve" font-family="Monaco,Monaco" font-size="27.0" fill="#FFFFFF" transform="matrix(1.00, 0.00, -0.00, -1.00, 456.7, 425.9)">b</text><text xml:space="preserve" font-family="Monaco,Monaco" font-size="27.0" fill="#FFFFFF" transform="matrix(1.00, 0.00, -0.00, -1.00, 472.9, 425.9)">y</text><text xml:space="preserve" font-family="Monaco,Monaco" font-size="27.0" fill="#FFFFFF" transform="matrix(1.00, 0.00, -0.00, -1.00, 489.1, 425.9)"> </text><text xml:space="preserve" font-family="Monaco,Monaco" font-size="27.0" fill="#FFFFFF" transform="matrix(1.00, 0.00, -0.00, -1.00, 505.3, 425.9)">s</text><text xml:space="preserve" font-family="Monaco,Monaco" font-size="27.0" fill="#FFFFFF" transform="matrix(1.00, 0.00, -0.00, -1.00, 521.5, 425.9)">e</text><text xml:space="preserve" font-family="Monaco,Monaco" font-size="27.0" fill="#FFFFFF" transform="matrix(1.00, 0.00, -0.00, -1.00, 537.7, 425.9)">c</text><text xml:space="preserve" font-family="Monaco,Monaco" font-size="27.0" fill="#FFFFFF" transform="matrix(1.00, 0.00, -0.00, -1.00, 554.0, 425.9)">o</text><text xml:space="preserve" font-family="Monaco,Monaco" font-size="27.0" fill="#FFFFFF" transform="matrix(1.00, 0.00, -0.00, -1.00, 570.2, 425.9)">n</text><text xml:space="preserve" font-family="Monaco,Monaco" font-size="27.0" fill="#FFFFFF" transform="matrix(1.00, 0.00, -0.00, -1.00, 586.4, 425.9)">d</text><text xml:space="preserve" font-family="Monaco,Monaco" font-size="27.0" fill="#FFFFFF" transform="matrix(1.00, 0.00, -0.00, -1.00, 84.0, 389.9)"> </text><text xml:space="preserve" font-family="Monaco,Monaco" font-size="27.0" fill="#FFFFFF" transform="matrix(1.00, 0.00, -0.00, -1.00, 100.2, 389.9)"> </text><text xml:space="preserve" font-family="Monaco,Monaco" font-size="27.0" fill="#FFFFFF" transform="matrix(1.00, 0.00, -0.00, -1.00, 116.4, 389.9)"> </text><text xml:space="preserve" font-family="Monaco,Monaco" font-size="27.0" fill="#FFFFFF" transform="matrix(1.00, 0.00, -0.00, -1.00, 132.6, 389.9)"> </text><text xml:space="preserve" font-family="Monaco,Monaco" font-size="27.0" fill="#FFFFFF" transform="matrix(1.00, 0.00, -0.00, -1.00, 148.8, 389.9)"> </text><text xml:space="preserve" font-family="Monaco,Monaco" font-size="27.0" fill="#FFFFFF" transform="matrix(1.00, 0.00, -0.00, -1.00, 165.0, 389.9)"> </text><text xml:space="preserve" font-family="Monaco,Monaco" font-size="27.0" fill="#FFFFFF" transform="matrix(1.00, 0.00, -0.00, -1.00, 181.2, 389.9)"> </text><text xml:space="preserve" font-family="Monaco,Monaco" font-size="27.0" fill="#FFFFFF" transform="matrix(1.00, 0.00, -0.00, -1.00, 197.4, 389.9)"> </text><text xml:space="preserve" font-family="Monaco,Monaco" font-size="27.0" fill="#FFFFFF" transform="matrix(1.00, 0.00, -0.00, -1.00, 213.6, 389.9)"> </text><text xml:space="preserve" font-family="Monaco,Monaco" font-size="27.0" fill="#FFFFFF" transform="matrix(1.00, 0.00, -0.00, -1.00, 229.8, 389.9)"> </text><text xml:space="preserve" font-family="Monaco,Monaco" font-size="27.0" fill="#FFFFFF" transform="matrix(1.00, 0.00, -0.00, -1.00, 246.1, 389.9)"> </text><text xml:space="preserve" font-family="Monaco,Monaco" font-size="27.0" fill="#FFFFFF" transform="matrix(1.00, 0.00, -0.00, -1.00, 262.3, 389.9)"> </text><text xml:space="preserve" font-family="Monaco,Monaco" font-size="27.0" fill="#FFFFFF" transform="matrix(1.00, 0.00, -0.00, -1.00, 278.5, 389.9)"> </text><text xml:space="preserve" font-family="Monaco,Monaco" font-size="27.0" fill="#FFFFFF" transform="matrix(1.00, 0.00, -0.00, -1.00, 294.7, 389.9)"> </text><text xml:space="preserve" font-family="Monaco,Monaco" font-size="27.0" fill="#FFFFFF" transform="matrix(1.00, 0.00, -0.00, -1.00, 310.9, 389.9)"> </text><text xml:space="preserve" font-family="Monaco,Monaco" font-size="27.0" fill="#FFFFFF" transform="matrix(1.00, 0.00, -0.00, -1.00, 327.1, 389.9)"> </text><text xml:space="preserve" font-family="Monaco,Monaco" font-size="27.0" fill="#FFFFFF" transform="matrix(1.00, 0.00, -0.00, -1.00, 343.3, 389.9)"> </text><text xml:space="preserve" font-family="Monaco,Monaco" font-size="27.0" fill="#FFFFFF" transform="matrix(1.00, 0.00, -0.00, -1.00, 359.5, 389.9)"> </text><text xml:space="preserve" font-family="Monaco,Monaco" font-size="27.0" fill="#FFFFFF" transform="matrix(1.00, 0.00, -0.00, -1.00, 375.7, 389.9)"> </text><text xml:space="preserve" font-family="Monaco,Monaco" font-size="27.0" fill="#FFFFFF" transform="matrix(1.00, 0.00, -0.00, -1.00, 391.9, 389.9)"> </text><text xml:space="preserve" font-family="Monaco,Monaco" font-size="27.0" fill="#FFFFFF" transform="matrix(1.00, 0.00, -0.00, -1.00, 408.1, 389.9)"> </text><text xml:space="preserve" font-family="Monaco,Monaco" font-size="27.0" fill="#FFFFFF" transform="matrix(1.00, 0.00, -0.00, -1.00, 424.3, 389.9)"> </text><text xml:space="preserve" font-family="Monaco,Monaco" font-size="27.0" fill="#FFFFFF" transform="matrix(1.00, 0.00, -0.00, -1.00, 440.5, 389.9)"> </text><text xml:space="preserve" font-family="Monaco,Monaco" font-size="27.0" fill="#FFFFFF" transform="matrix(1.00, 0.00, -0.00, -1.00, 456.7, 389.9)"> </text><text xml:space="preserve" font-family="Monaco,Monaco" font-size="27.0" fill="#FFFFFF" transform="matrix(1.00, 0.00, -0.00, -1.00, 472.9, 389.9)"> </text><text xml:space="preserve" font-family="Monaco,Monaco" font-size="27.0" fill="#FFFFFF" transform="matrix(1.00, 0.00, -0.00, -1.00, 489.1, 389.9)"> </text><text xml:space="preserve" font-family="Monaco,Monaco" font-size="27.0" fill="#FFFFFF" transform="matrix(1.00, 0.00, -0.00, -1.00, 505.3, 389.9)">(</text><text xml:space="preserve" font-family="Monaco,Monaco" font-size="27.0" fill="#FFFFFF" transform="matrix(1.00, 0.00, -0.00, -1.00, 521.5, 389.9)">m</text><text xml:space="preserve" font-family="Monaco,Monaco" font-size="27.0" fill="#FFFFFF" transform="matrix(1.00, 0.00, -0.00, -1.00, 537.7, 389.9)">a</text><text xml:space="preserve" font-family="Monaco,Monaco" font-size="27.0" fill="#FFFFFF" transform="matrix(1.00, 0.00, -0.00, -1.00, 554.0, 389.9)">p</text><text xml:space="preserve" font-family="Monaco,Monaco" font-size="27.0" fill="#FFFFFF" transform="matrix(1.00, 0.00, -0.00, -1.00, 570.2, 389.9)"> </text><text xml:space="preserve" font-family="Monaco,Monaco" font-size="27.0" fill="#FFFFFF" transform="matrix(1.00, 0.00, -0.00, -1.00, 586.4, 389.9)">#</text><text xml:space="preserve" font-family="Monaco,Monaco" font-size="27.0" fill="#FFFFFF" transform="matrix(1.00, 0.00, -0.00, -1.00, 602.6, 389.9)">(</text><text xml:space="preserve" font-family="Monaco,Monaco" font-size="27.0" fill="#FFFFFF" transform="matrix(1.00, 0.00, -0.00, -1.00, 618.8, 389.9)">v</text><text xml:space="preserve" font-family="Monaco,Monaco" font-size="27.0" fill="#FFFFFF" transform="matrix(1.00, 0.00, -0.00, -1.00, 635.0, 389.9)">e</text><text xml:space="preserve" font-family="Monaco,Monaco" font-size="27.0" fill="#FFFFFF" transform="matrix(1.00, 0.00, -0.00, -1.00, 651.2, 389.9)">c</text><text xml:space="preserve" font-family="Monaco,Monaco" font-size="27.0" fill="#FFFFFF" transform="matrix(1.00, 0.00, -0.00, -1.00, 667.4, 389.9)">t</text><text xml:space="preserve" font-family="Monaco,Monaco" font-size="27.0" fill="#FFFFFF" transform="matrix(1.00, 0.00, -0.00, -1.00, 683.6, 389.9)">o</text><text xml:space="preserve" font-family="Monaco,Monaco" font-size="27.0" fill="#FFFFFF" transform="matrix(1.00, 0.00, -0.00, -1.00, 699.8, 389.9)">r</text><text xml:space="preserve" font-family="Monaco,Monaco" font-size="27.0" fill="#FFFFFF" transform="matrix(1.00, 0.00, -0.00, -1.00, 716.0, 389.9)"> </text><text xml:space="preserve" font-family="Monaco,Monaco" font-size="27.0" fill="#A9CAEB" transform="matrix(1.00, 0.00, -0.00, -1.00, 732.1, 389.9)">%</text><text xml:space="preserve" font-family="Monaco,Monaco" font-size="27.0" fill="#FFFFFF" transform="matrix(1.00, 0.00, -0.00, -1.00, 748.3, 389.9)"> </text><text xml:space="preserve" font-family="Monaco,Monaco" font-size="27.0" fill="#FFFFFF" transform="matrix(1.00, 0.00, -0.00, -1.00, 764.5, 389.9)">(</text><text xml:space="preserve" font-family="Monaco,Monaco" font-size="27.0" fill="#FFFFFF" transform="matrix(1.00, 0.00, -0.00, -1.00, 780.7, 389.9)">f</text><text xml:space="preserve" font-family="Monaco,Monaco" font-size="27.0" fill="#FFFFFF" transform="matrix(1.00, 0.00, -0.00, -1.00, 796.9, 389.9)">o</text><text xml:space="preserve" font-family="Monaco,Monaco" font-size="27.0" fill="#FFFFFF" transform="matrix(1.00, 0.00, -0.00, -1.00, 813.1, 389.9)">o</text><text xml:space="preserve" font-family="Monaco,Monaco" font-size="27.0" fill="#FFFFFF" transform="matrix(1.00, 0.00, -0.00, -1.00, 829.3, 389.9)"> </text><text xml:space="preserve" font-family="Monaco,Monaco" font-size="27.0" fill="#A9CAEB" transform="matrix(1.00, 0.00, -0.00, -1.00, 845.5, 389.9)">%</text><text xml:space="preserve" font-family="Monaco,Monaco" font-size="27.0" fill="#FFFFFF" transform="matrix(1.00, 0.00, -0.00, -1.00, 861.7, 389.9)">)</text><text xml:space="preserve" font-family="Monaco,Monaco" font-size="27.0" fill="#FFFFFF" transform="matrix(1.00, 0.00, -0.00, -1.00, 877.9, 389.9)">)</text><text xml:space="preserve" font-family="Monaco,Monaco" font-size="27.0" fill="#FFFFFF" transform="matrix(1.00, 0.00, -0.00, -1.00, 84.0, 353.9)"> </text><text xml:space="preserve" font-family="Monaco,Monaco" font-size="27.0" fill="#FFFFFF" transform="matrix(1.00, 0.00, -0.00, -1.00, 100.2, 353.9)"> </text><text xml:space="preserve" font-family="Monaco,Monaco" font-size="27.0" fill="#FFFFFF" transform="matrix(1.00, 0.00, -0.00, -1.00, 116.4, 353.9)"> </text><text xml:space="preserve" font-family="Monaco,Monaco" font-size="27.0" fill="#FFFFFF" transform="matrix(1.00, 0.00, -0.00, -1.00, 132.6, 353.9)"> </text><text xml:space="preserve" font-family="Monaco,Monaco" font-size="27.0" fill="#FFFFFF" transform="matrix(1.00, 0.00, -0.00, -1.00, 148.8, 353.9)"> </text><text xml:space="preserve" font-family="Monaco,Monaco" font-size="27.0" fill="#FFFFFF" transform="matrix(1.00, 0.00, -0.00, -1.00, 165.0, 353.9)"> </text><text xml:space="preserve" font-family="Monaco,Monaco" font-size="27.0" fill="#FFFFFF" transform="matrix(1.00, 0.00, -0.00, -1.00, 181.2, 353.9)"> </text><text xml:space="preserve" font-family="Monaco,Monaco" font-size="27.0" fill="#FFFFFF" transform="matrix(1.00, 0.00, -0.00, -1.00, 197.4, 353.9)"> </text><text xml:space="preserve" font-family="Monaco,Monaco" font-size="27.0" fill="#FFFFFF" transform="matrix(1.00, 0.00, -0.00, -1.00, 213.6, 353.9)"> </text><text xml:space="preserve" font-family="Monaco,Monaco" font-size="27.0" fill="#FFFFFF" transform="matrix(1.00, 0.00, -0.00, -1.00, 229.8, 353.9)"> </text><text xml:space="preserve" font-family="Monaco,Monaco" font-size="27.0" fill="#FFFFFF" transform="matrix(1.00, 0.00, -0.00, -1.00, 246.1, 353.9)"> </text><text xml:space="preserve" font-family="Monaco,Monaco" font-size="27.0" fill="#FFFFFF" transform="matrix(1.00, 0.00, -0.00, -1.00, 262.3, 353.9)"> </text><text xml:space="preserve" font-family="Monaco,Monaco" font-size="27.0" fill="#FFFFFF" transform="matrix(1.00, 0.00, -0.00, -1.00, 278.5, 353.9)"> </text><text xml:space="preserve" font-family="Monaco,Monaco" font-size="27.0" fill="#FFFFFF" transform="matrix(1.00, 0.00, -0.00, -1.00, 294.7, 353.9)"> </text><text xml:space="preserve" font-family="Monaco,Monaco" font-size="27.0" fill="#FFFFFF" transform="matrix(1.00, 0.00, -0.00, -1.00, 310.9, 353.9)"> </text><text xml:space="preserve" font-family="Monaco,Monaco" font-size="27.0" fill="#FFFFFF" transform="matrix(1.00, 0.00, -0.00, -1.00, 327.1, 353.9)"> </text><text xml:space="preserve" font-family="Monaco,Monaco" font-size="27.0" fill="#FFFFFF" transform="matrix(1.00, 0.00, -0.00, -1.00, 343.3, 353.9)"> </text><text xml:space="preserve" font-family="Monaco,Monaco" font-size="27.0" fill="#FFFFFF" transform="matrix(1.00, 0.00, -0.00, -1.00, 359.5, 353.9)"> </text><text xml:space="preserve" font-family="Monaco,Monaco" font-size="27.0" fill="#FFFFFF" transform="matrix(1.00, 0.00, -0.00, -1.00, 375.7, 353.9)"> </text><text xml:space="preserve" font-family="Monaco,Monaco" font-size="27.0" fill="#FFFFFF" transform="matrix(1.00, 0.00, -0.00, -1.00, 391.9, 353.9)"> </text><text xml:space="preserve" font-family="Monaco,Monaco" font-size="27.0" fill="#FFFFFF" transform="matrix(1.00, 0.00, -0.00, -1.00, 408.1, 353.9)"> </text><text xml:space="preserve" font-family="Monaco,Monaco" font-size="27.0" fill="#FFFFFF" transform="matrix(1.00, 0.00, -0.00, -1.00, 424.3, 353.9)"> </text><text xml:space="preserve" font-family="Monaco,Monaco" font-size="27.0" fill="#FFFFFF" transform="matrix(1.00, 0.00, -0.00, -1.00, 440.5, 353.9)"> </text><text xml:space="preserve" font-family="Monaco,Monaco" font-size="27.0" fill="#FFFFFF" transform="matrix(1.00, 0.00, -0.00, -1.00, 456.7, 353.9)"> </text><text xml:space="preserve" font-family="Monaco,Monaco" font-size="27.0" fill="#FFFFFF" transform="matrix(1.00, 0.00, -0.00, -1.00, 472.9, 353.9)"> </text><text xml:space="preserve" font-family="Monaco,Monaco" font-size="27.0" fill="#FFFFFF" transform="matrix(1.00, 0.00, -0.00, -1.00, 489.1, 353.9)"> </text><text xml:space="preserve" font-family="Monaco,Monaco" font-size="27.0" fill="#FFFFFF" transform="matrix(1.00, 0.00, -0.00, -1.00, 505.3, 353.9)"> </text><text xml:space="preserve" font-family="Monaco,Monaco" font-size="27.0" fill="#FFFFFF" transform="matrix(1.00, 0.00, -0.00, -1.00, 521.5, 353.9)"> </text><text xml:space="preserve" font-family="Monaco,Monaco" font-size="27.0" fill="#FFFFFF" transform="matrix(1.00, 0.00, -0.00, -1.00, 537.7, 353.9)"> </text><text xml:space="preserve" font-family="Monaco,Monaco" font-size="27.0" fill="#FFFFFF" transform="matrix(1.00, 0.00, -0.00, -1.00, 554.0, 353.9)"> </text><text xml:space="preserve" font-family="Monaco,Monaco" font-size="27.0" fill="#FFFFFF" transform="matrix(1.00, 0.00, -0.00, -1.00, 570.2, 353.9)"> </text><text xml:space="preserve" font-family="Monaco,Monaco" font-size="27.0" fill="#FFFFFF" transform="matrix(1.00, 0.00, -0.00, -1.00, 586.4, 353.9)">u</text><text xml:space="preserve" font-family="Monaco,Monaco" font-size="27.0" fill="#FFFFFF" transform="matrix(1.00, 0.00, -0.00, -1.00, 602.6, 353.9)">n</text><text xml:space="preserve" font-family="Monaco,Monaco" font-size="27.0" fill="#FFFFFF" transform="matrix(1.00, 0.00, -0.00, -1.00, 618.8, 353.9)">s</text><text xml:space="preserve" font-family="Monaco,Monaco" font-size="27.0" fill="#FFFFFF" transform="matrix(1.00, 0.00, -0.00, -1.00, 635.0, 353.9)">o</text><text xml:space="preserve" font-family="Monaco,Monaco" font-size="27.0" fill="#FFFFFF" transform="matrix(1.00, 0.00, -0.00, -1.00, 651.2, 353.9)">r</text><text xml:space="preserve" font-family="Monaco,Monaco" font-size="27.0" fill="#FFFFFF" transform="matrix(1.00, 0.00, -0.00, -1.00, 667.4, 353.9)">t</text><text xml:space="preserve" font-family="Monaco,Monaco" font-size="27.0" fill="#FFFFFF" transform="matrix(1.00, 0.00, -0.00, -1.00, 683.6, 353.9)">e</text><text xml:space="preserve" font-family="Monaco,Monaco" font-size="27.0" fill="#FFFFFF" transform="matrix(1.00, 0.00, -0.00, -1.00, 699.8, 353.9)">d</text><text xml:space="preserve" font-family="Monaco,Monaco" font-size="27.0" fill="#FFFFFF" transform="matrix(1.00, 0.00, -0.00, -1.00, 716.0, 353.9)">)</text><text xml:space="preserve" font-family="Monaco,Monaco" font-size="27.0" fill="#FFFFFF" transform="matrix(1.00, 0.00, -0.00, -1.00, 732.2, 353.9)">)</text><text xml:space="preserve" font-family="Monaco,Monaco" font-size="27.0" fill="#FFFFFF" transform="matrix(1.00, 0.00, -0.00, -1.00, 748.4, 353.9)">)</text><text xml:space="preserve" font-family="Monaco,Monaco" font-size="27.0" fill="#FFFFFF" transform="matrix(1.00, 0.00, -0.00, -1.00, 764.6, 353.9)">)</text><text xml:space="preserve" font-family="Monaco,Monaco" font-size="27.0" fill="#FFFFFF" transform="matrix(1.00, 0.00, -0.00, -1.00, 780.7, 353.9)"> </text><text xml:space="preserve" font-family="Monaco,Monaco" font-size="27.0" fill="#FFFFFF" transform="matrix(1.00, 0.00, -0.00, -1.00, 796.9, 353.9)"> </text></g></svg>