<?xml version="1.0" encoding="UTF-8" standalone="no"?><svg xmlns="http://www.w3.org/2000/svg" xmlns:xlink="http://www.w3.org/1999/xlink" clip-rule="evenodd" stroke-miterlimit="10" viewBox="0 0 667 39"><desc>SVG generated by Keynote</desc><defs></defs><g transform="matrix(1.00, 0.00, -0.00, -1.00, 0.0, 39.0)"><text xml:space="preserve" font-family="Monaco,Monaco" font-size="36.0" fill="#FEFFFF" transform="matrix(1.00, 0.00, -0.00, -1.00, -0.9, 8.9)">(</text><text xml:space="preserve" font-family="Monaco,Monaco" font-size="36.0" fill="#FEFFFF" transform="matrix(1.00, 0.00, -0.00, -1.00, 20.8, 8.9)">=</text><text xml:space="preserve" font-family="Monaco,Monaco" font-size="36.0" fill="#FEFFFF" transform="matrix(1.00, 0.00, -0.00, -1.00, 42.4, 8.9)"> </text><text xml:space="preserve" font-family="Monaco,Monaco" font-size="36.0" fill="#FEFFFF" transform="matrix(1.00, 0.00, -0.00, -1.00, 64.0, 8.9)">(</text><text xml:space="preserve" font-family="Monaco,Monaco" font-size="36.0" fill="#FEFFFF" transform="matrix(1.00, 0.00, -0.00, -1.00, 85.6, 8.9)">+</text><text xml:space="preserve" font-family="Monaco,Monaco" font-size="36.0" fill="#FEFFFF" transform="matrix(1.00, 0.00, -0.00, -1.00, 107.2, 8.9)"> </text><text xml:space="preserve" font-family="Monaco,Monaco" font-size="36.0" fill="#FEFFFF" transform="matrix(1.00, 0.00, -0.00, -1.00, 128.8, 8.9)">(</text><text xml:space="preserve" font-family="Monaco,Monaco" font-size="36.0" fill="#FEFFFF" transform="matrix(1.00, 0.00, -0.00, -1.00, 150.4, 8.9)">+</text><text xml:space="preserve" font-family="Monaco,Monaco" font-size="36.0" fill="#FEFFFF" transform="matrix(1.00, 0.00, -0.00, -1.00, 172.0, 8.9)"> </text><text xml:space="preserve" font-family="Monaco,Monaco" font-size="36.0" fill="#FEFFFF" transform="matrix(1.00, 0.00, -0.00, -1.00, 193.6, 8.9)">1</text><text xml:space="preserve" font-family="Monaco,Monaco" font-size="36.0" fill="#FEFFFF" transform="matrix(1.00, 0.00, -0.00, -1.00, 215.2, 8.9)"> </text><text xml:space="preserve" font-family="Monaco,Monaco" font-size="36.0" fill="#FEFFFF" transform="matrix(1.00, 0.00, -0.00, -1.00, 236.8, 8.9)">2</text><text xml:space="preserve" font-family="Monaco,Monaco" font-size="36.0" fill="#FEFFFF" transform="matrix(1.00, 0.00, -0.00, -1.00, 258.4, 8.9)">)</text><text xml:space="preserve" font-family="Monaco,Monaco" font-size="36.0" fill="#FEFFFF" transform="matrix(1.00, 0.00, -0.00, -1.00, 280.0, 8.9)"> </text><text xml:space="preserve" font-family="Monaco,Monaco" font-size="36.0" fill="#FEFFFF" transform="matrix(1.00, 0.00, -0.00, -1.00, 301.6, 8.9)">3</text><text xml:space="preserve" font-family="Monaco,Monaco" font-size="36.0" fill="#FEFFFF" transform="matrix(1.00, 0.00, -0.00, -1.00, 323.3, 8.9)">)</text><text xml:space="preserve" font-family="Monaco,Monaco" font-size="36.0" fill="#FEFFFF" transform="matrix(1.00, 0.00, -0.00, -1.00, 344.9, 8.9)"> </text><text xml:space="preserve" font-family="Monaco,Monaco" font-size="36.0" fill="#FEFFFF" transform="matrix(1.00, 0.00, -0.00, -1.00, 366.5, 8.9)">(</text><text xml:space="preserve" font-family="Monaco,Monaco" font-size="36.0" fill="#FEFFFF" transform="matrix(1.00, 0.00, -0.00, -1.00, 388.1, 8.9)">+</text><text xml:space="preserve" font-family="Monaco,Monaco" font-size="36.0" fill="#FEFFFF" transform="matrix(1.00, 0.00, -0.00, -1.00, 409.7, 8.9)"> </text><text xml:space="preserve" font-family="Monaco,Monaco" font-size="36.0" fill="#FEFFFF" transform="matrix(1.00, 0.00, -0.00, -1.00, 431.3, 8.9)">1</text><text xml:space="preserve" font-family="Monaco,Monaco" font-size="36.0" fill="#FEFFFF" transform="matrix(1.00, 0.00, -0.00, -1.00, 452.9, 8.9)"> </text><text xml:space="preserve" font-family="Monaco,Monaco" font-size="36.0" fill="#FEFFFF" transform="matrix(1.00, 0.00, -0.00, -1.00, 474.5, 8.9)">(</text><text xml:space="preserve" font-family="Monaco,Monaco" font-size="36.0" fill="#FEFFFF" transform="matrix(1.00, 0.00, -0.00, -1.00, 496.1, 8.9)">+</text><text xml:space="preserve" font-family="Monaco,Monaco" font-size="36.0" fill="#FEFFFF" transform="matrix(1.00, 0.00, -0.00, -1.00, 517.7, 8.9)"> </text><text xml:space="preserve" font-family="Monaco,Monaco" font-size="36.0" fill="#FEFFFF" transform="matrix(1.00, 0.00, -0.00, -1.00, 539.3, 8.9)">2</text><text xml:space="preserve" font-family="Monaco,Monaco" font-size="36.0" fill="#FEFFFF" transform="matrix(1.00, 0.00, -0.00, -1.00, 560.9, 8.9)"> </text><text xml:space="preserve" font-family="Monaco,Monaco" font-size="36.0" fill="#FEFFFF" transform="matrix(1.00, 0.00, -0.00, -1.00, 582.5, 8.9)">3</text><text xml:space="preserve" font-family="Monaco,Monaco" font-size="36.0" fill="#FEFFFF" transform="matrix(1.00, 0.00, -0.00, -1.00, 604.1, 8.9)">)</text><text xml:space="preserve" font-family="Monaco,Monaco" font-size="36.0" fill="#FEFFFF" transform="matrix(1.00, 0.00, -0.00, -1.00, 625.8, 8.9)">)</text><text xml:space="preserve" font-family="Monaco,Monaco" font-size="36.0" fill="#FEFFFF" transform="matrix(1.00, 0.00, -0.00, -1.00, 647.4, 8.9)">)</text></g></svg>