<?xml version="1.0" encoding="UTF-8" standalone="no"?><svg xmlns="http://www.w3.org/2000/svg" xmlns:xlink="http://www.w3.org/1999/xlink" clip-rule="evenodd" stroke-miterlimit="10" viewBox="0 0 579 39"><desc>SVG generated by Keynote</desc><defs></defs><g transform="matrix(1.00, 0.00, -0.00, -1.00, 0.0, 39.0)"><g><clipPath id="clip0x7fae5aa8c520"><path d="M 0.0 0.0 L 579.0 0.0 L 579.0 39.0 L 0.0 39.0 Z M 0.0 0.0 "></path></clipPath><g clip-path="url(#clip0x7fae5aa8c520)"><path d="M -2.0 44.3 L 581.3 44.3 L 581.3 -3.7 L -2.0 -3.7 Z M -2.0 44.3 " fill="#000000"></path></g></g><text xml:space="preserve" font-family="Monaco,Monaco" font-size="36.0" fill="#FFFFFF" transform="matrix(1.00, 0.00, -0.00, -1.00, -2.0, 8.3)">(</text><text xml:space="preserve" font-family="Monaco,Monaco" font-size="36.0" fill="#C5B3FD" transform="matrix(1.00, 0.00, -0.00, -1.00, 19.6, 8.3)">0</text><text xml:space="preserve" font-family="Monaco,Monaco" font-size="36.0" fill="#FFFFFF" transform="matrix(1.00, 0.00, -0.00, -1.00, 41.2, 8.3)"> </text><text xml:space="preserve" font-family="Monaco,Monaco" font-size="36.0" fill="#FFFFFF" transform="matrix(1.00, 0.00, -0.00, -1.00, 62.8, 8.3)">/</text><text xml:space="preserve" font-family="Monaco,Monaco" font-size="36.0" fill="#FFFFFF" transform="matrix(1.00, 0.00, -0.00, -1.00, 84.4, 8.3)">:</text><text xml:space="preserve" font-family="Monaco,Monaco" font-size="36.0" fill="#FFFFFF" transform="matrix(1.00, 0.00, -0.00, -1.00, 106.0, 8.3)"> </text><text xml:space="preserve" font-family="Monaco,Monaco" font-size="36.0" fill="#FFFFFF" transform="matrix(1.00, 0.00, -0.00, -1.00, 127.6, 8.3)">(</text><text xml:space="preserve" font-family="Monaco,Monaco" font-size="36.0" fill="#C5B3FD" transform="matrix(1.00, 0.00, -0.00, -1.00, 149.2, 8.3)">0</text><text xml:space="preserve" font-family="Monaco,Monaco" font-size="36.0" fill="#FFFFFF" transform="matrix(1.00, 0.00, -0.00, -1.00, 170.8, 8.3)"> </text><text xml:space="preserve" font-family="Monaco,Monaco" font-size="36.0" fill="#FFFFFF" transform="matrix(1.00, 0.00, -0.00, -1.00, 192.4, 8.3)">u</text><text xml:space="preserve" font-family="Monaco,Monaco" font-size="36.0" fill="#FFFFFF" transform="matrix(1.00, 0.00, -0.00, -1.00, 214.0, 8.3)">n</text><text xml:space="preserve" font-family="Monaco,Monaco" font-size="36.0" fill="#FFFFFF" transform="matrix(1.00, 0.00, -0.00, -1.00, 235.6, 8.3)">t</text><text xml:space="preserve" font-family="Monaco,Monaco" font-size="36.0" fill="#FFFFFF" transform="matrix(1.00, 0.00, -0.00, -1.00, 257.3, 8.3)">i</text><text xml:space="preserve" font-family="Monaco,Monaco" font-size="36.0" fill="#FFFFFF" transform="matrix(1.00, 0.00, -0.00, -1.00, 278.9, 8.3)">l</text><text xml:space="preserve" font-family="Monaco,Monaco" font-size="36.0" fill="#FFFFFF" transform="matrix(1.00, 0.00, -0.00, -1.00, 300.5, 8.3)"> </text><text xml:space="preserve" font-family="Monaco,Monaco" font-size="36.0" fill="#C5B3FD" transform="matrix(1.00, 0.00, -0.00, -1.00, 322.1, 8.3)">1</text><text xml:space="preserve" font-family="Monaco,Monaco" font-size="36.0" fill="#C5B3FD" transform="matrix(1.00, 0.00, -0.00, -1.00, 343.7, 8.3)">0</text><text xml:space="preserve" font-family="Monaco,Monaco" font-size="36.0" fill="#C5B3FD" transform="matrix(1.00, 0.00, -0.00, -1.00, 365.3, 8.3)">0</text><text xml:space="preserve" font-family="Monaco,Monaco" font-size="36.0" fill="#FFFFFF" transform="matrix(1.00, 0.00, -0.00, -1.00, 386.9, 8.3)">)</text><text xml:space="preserve" font-family="Monaco,Monaco" font-size="36.0" fill="#FFFFFF" transform="matrix(1.00, 0.00, -0.00, -1.00, 408.5, 8.3)">)</text><text xml:space="preserve" font-family="Monaco,Monaco" font-size="36.0" fill="#FFFFFF" transform="matrix(1.00, 0.00, -0.00, -1.00, 430.1, 8.3)">(</text><text xml:space="preserve" font-family="Monaco,Monaco" font-size="36.0" fill="#B4E4C5" transform="matrix(1.00, 0.00, -0.00, -1.00, 451.7, 8.3)">_</text><text xml:space="preserve" font-family="Monaco,Monaco" font-size="36.0" fill="#FFFFFF" transform="matrix(1.00, 0.00, -0.00, -1.00, 473.3, 8.3)"> </text><text xml:space="preserve" font-family="Monaco,Monaco" font-size="36.0" fill="#FFFFFF" transform="matrix(1.00, 0.00, -0.00, -1.00, 494.9, 8.3)">+</text><text xml:space="preserve" font-family="Monaco,Monaco" font-size="36.0" fill="#FFFFFF" transform="matrix(1.00, 0.00, -0.00, -1.00, 516.5, 8.3)"> </text><text xml:space="preserve" font-family="Monaco,Monaco" font-size="36.0" fill="#B4E4C5" transform="matrix(1.00, 0.00, -0.00, -1.00, 538.1, 8.3)">_</text><text xml:space="preserve" font-family="Monaco,Monaco" font-size="36.0" fill="#FFFFFF" transform="matrix(1.00, 0.00, -0.00, -1.00, 559.7, 8.3)">)</text></g></svg>