<?xml version="1.0" encoding="UTF-8" standalone="no"?><svg xmlns="http://www.w3.org/2000/svg" xmlns:xlink="http://www.w3.org/1999/xlink" clip-rule="evenodd" stroke-miterlimit="10" viewBox="0 0 1024 768"><desc>SVG generated by Keynote</desc><defs></defs><g transform="matrix(1.00, 0.00, -0.00, -1.00, 0.0, 768.0)"><path d="M 0.0 768.0 L 1024.0 768.0 L 1024.0 0.0 L 0.0 0.0 Z M 0.0 768.0 " fill="#000000"></path><path d="M 322.4 472.9 L 549.2 472.9 L 549.2 436.9 L 322.4 436.9 Z M 322.4 472.9 " fill="#000000"></path><path d="M 322.4 436.9 L 549.2 436.9 L 549.2 400.9 L 322.4 400.9 Z M 322.4 436.9 " fill="#000000"></path><path d="M 358.4 400.9 L 407.0 400.9 L 407.0 364.9 L 358.4 364.9 Z M 358.4 400.9 " fill="#000000"></path><path d="M 322.4 364.9 L 662.6 364.9 L 662.6 328.9 L 322.4 328.9 Z M 322.4 364.9 " fill="#000000"></path><g><clipPath id="clip0x7fae55a0ea80"><path d="M 313.9 295.1 L 710.1 295.1 L 710.1 472.9 L 313.9 472.9 Z M 313.9 295.1 "></path></clipPath><g clip-path="url(#clip0x7fae55a0ea80)"><path d="M 322.4 328.9 L 695.0 328.9 L 695.0 292.9 L 322.4 292.9 Z M 322.4 328.9 " fill="#000000"></path></g></g><text xml:space="preserve" font-family="Monaco,Monaco" font-size="27.0" fill="#CCCCCC" transform="matrix(1.00, 0.00, -0.00, -1.00, 322.4, 445.9)">(</text><text xml:space="preserve" font-family="Monaco,Monaco" font-size="27.0" fill="#B7E9CB" transform="matrix(1.00, 0.00, -0.00, -1.00, 338.6, 445.9)">d</text><text xml:space="preserve" font-family="Monaco,Monaco" font-size="27.0" fill="#B7E9CB" transform="matrix(1.00, 0.00, -0.00, -1.00, 354.8, 445.9)">e</text><text xml:space="preserve" font-family="Monaco,Monaco" font-size="27.0" fill="#B7E9CB" transform="matrix(1.00, 0.00, -0.00, -1.00, 371.0, 445.9)">f</text><text xml:space="preserve" font-family="Monaco,Monaco" font-size="27.0" fill="#B7E9CB" transform="matrix(1.00, 0.00, -0.00, -1.00, 387.2, 445.9)">n</text><text xml:space="preserve" font-family="Monaco,Monaco" font-size="27.0" fill="#CCCCCC" transform="matrix(1.00, 0.00, -0.00, -1.00, 403.4, 445.9)"> </text><text xml:space="preserve" font-family="Monaco,Monaco" font-size="27.0" fill="#ADCEFC" transform="matrix(1.00, 0.00, -0.00, -1.00, 419.6, 445.9)">f</text><text xml:space="preserve" font-family="Monaco,Monaco" font-size="27.0" fill="#ADCEFC" transform="matrix(1.00, 0.00, -0.00, -1.00, 435.8, 445.9)">i</text><text xml:space="preserve" font-family="Monaco,Monaco" font-size="27.0" fill="#ADCEFC" transform="matrix(1.00, 0.00, -0.00, -1.00, 452.0, 445.9)">b</text><text xml:space="preserve" font-family="Monaco,Monaco" font-size="27.0" fill="#CCCCCC" transform="matrix(1.00, 0.00, -0.00, -1.00, 468.2, 445.9)"> </text><text xml:space="preserve" font-family="Monaco,Monaco" font-size="27.0" fill="#CCCCCC" transform="matrix(1.00, 0.00, -0.00, -1.00, 484.4, 445.9)">[</text><text xml:space="preserve" font-family="Monaco,Monaco" font-size="27.0" fill="#CCCCCC" transform="matrix(1.00, 0.00, -0.00, -1.00, 500.6, 445.9)">n</text><text xml:space="preserve" font-family="Monaco,Monaco" font-size="27.0" fill="#CCCCCC" transform="matrix(1.00, 0.00, -0.00, -1.00, 516.8, 445.9)">]</text><text xml:space="preserve" font-family="Monaco,Monaco" font-size="27.0" fill="#CCCCCC" transform="matrix(1.00, 0.00, -0.00, -1.00, 322.4, 409.9)"> </text><text xml:space="preserve" font-family="Monaco,Monaco" font-size="27.0" fill="#CCCCCC" transform="matrix(1.00, 0.00, -0.00, -1.00, 338.6, 409.9)"> </text><text xml:space="preserve" font-family="Monaco,Monaco" font-size="27.0" fill="#CCCCCC" transform="matrix(1.00, 0.00, -0.00, -1.00, 354.8, 409.9)">(</text><text xml:space="preserve" font-family="Monaco,Monaco" font-size="27.0" fill="#B7E9CB" transform="matrix(1.00, 0.00, -0.00, -1.00, 371.0, 409.9)">i</text><text xml:space="preserve" font-family="Monaco,Monaco" font-size="27.0" fill="#B7E9CB" transform="matrix(1.00, 0.00, -0.00, -1.00, 387.2, 409.9)">f</text><text xml:space="preserve" font-family="Monaco,Monaco" font-size="27.0" fill="#B7E9CB" transform="matrix(1.00, 0.00, -0.00, -1.00, 403.4, 409.9)"> </text><text xml:space="preserve" font-family="Monaco,Monaco" font-size="27.0" fill="#B7E9CB" transform="matrix(1.00, 0.00, -0.00, -1.00, 419.6, 409.9)">(</text><text xml:space="preserve" font-family="Monaco,Monaco" font-size="27.0" fill="#B7E9CB" transform="matrix(1.00, 0.00, -0.00, -1.00, 435.8, 409.9)">&lt;</text><text xml:space="preserve" font-family="Monaco,Monaco" font-size="27.0" fill="#B7E9CB" transform="matrix(1.00, 0.00, -0.00, -1.00, 452.0, 409.9)"> </text><text xml:space="preserve" font-family="Monaco,Monaco" font-size="27.0" fill="#B7E9CB" transform="matrix(1.00, 0.00, -0.00, -1.00, 468.2, 409.9)">n</text><text xml:space="preserve" font-family="Monaco,Monaco" font-size="27.0" fill="#B7E9CB" transform="matrix(1.00, 0.00, -0.00, -1.00, 484.4, 409.9)"> </text><text xml:space="preserve" font-family="Monaco,Monaco" font-size="27.0" fill="#B7E9CB" transform="matrix(1.00, 0.00, -0.00, -1.00, 500.6, 409.9)">2</text><text xml:space="preserve" font-family="Monaco,Monaco" font-size="27.0" fill="#B7E9CB" transform="matrix(1.00, 0.00, -0.00, -1.00, 516.8, 409.9)">)</text><text xml:space="preserve" font-family="Monaco,Monaco" font-size="27.0" fill="#B7E9CB" transform="matrix(1.00, 0.00, -0.00, -1.00, 358.4, 373.9)"> </text><text xml:space="preserve" font-family="Monaco,Monaco" font-size="27.0" fill="#B7E9CB" transform="matrix(1.00, 0.00, -0.00, -1.00, 374.6, 373.9)"> </text><text xml:space="preserve" font-family="Monaco,Monaco" font-size="27.0" fill="#B7E9CB" transform="matrix(1.00, 0.00, -0.00, -1.00, 390.8, 373.9)">n</text><text xml:space="preserve" font-family="Monaco,Monaco" font-size="27.0" fill="#CCCCCC" transform="matrix(1.00, 0.00, -0.00, -1.00, 322.4, 337.9)"> </text><text xml:space="preserve" font-family="Monaco,Monaco" font-size="27.0" fill="#CCCCCC" transform="matrix(1.00, 0.00, -0.00, -1.00, 338.6, 337.9)"> </text><text xml:space="preserve" font-family="Monaco,Monaco" font-size="27.0" fill="#CCCCCC" transform="matrix(1.00, 0.00, -0.00, -1.00, 354.8, 337.9)"> </text><text xml:space="preserve" font-family="Monaco,Monaco" font-size="27.0" fill="#CCCCCC" transform="matrix(1.00, 0.00, -0.00, -1.00, 371.0, 337.9)"> </text><text xml:space="preserve" font-family="Monaco,Monaco" font-size="27.0" fill="#CCCCCC" transform="matrix(1.00, 0.00, -0.00, -1.00, 387.2, 337.9)">(</text><text xml:space="preserve" font-family="Monaco,Monaco" font-size="27.0" fill="#CCCCCC" transform="matrix(1.00, 0.00, -0.00, -1.00, 403.4, 337.9)">+</text><text xml:space="preserve" font-family="Monaco,Monaco" font-size="27.0" fill="#CCCCCC" transform="matrix(1.00, 0.00, -0.00, -1.00, 419.6, 337.9)"> </text><text xml:space="preserve" font-family="Monaco,Monaco" font-size="27.0" fill="#CCCCCC" transform="matrix(1.00, 0.00, -0.00, -1.00, 435.8, 337.9)">(</text><text xml:space="preserve" font-family="Monaco,Monaco" font-size="27.0" fill="#CCCCCC" transform="matrix(1.00, 0.00, -0.00, -1.00, 452.0, 337.9)">f</text><text xml:space="preserve" font-family="Monaco,Monaco" font-size="27.0" fill="#CCCCCC" transform="matrix(1.00, 0.00, -0.00, -1.00, 468.2, 337.9)">i</text><text xml:space="preserve" font-family="Monaco,Monaco" font-size="27.0" fill="#CCCCCC" transform="matrix(1.00, 0.00, -0.00, -1.00, 484.4, 337.9)">b</text><text xml:space="preserve" font-family="Monaco,Monaco" font-size="27.0" fill="#CCCCCC" transform="matrix(1.00, 0.00, -0.00, -1.00, 500.6, 337.9)"> </text><text xml:space="preserve" font-family="Monaco,Monaco" font-size="27.0" fill="#CCCCCC" transform="matrix(1.00, 0.00, -0.00, -1.00, 516.8, 337.9)">(</text><text xml:space="preserve" font-family="Monaco,Monaco" font-size="27.0" fill="#CCCCCC" transform="matrix(1.00, 0.00, -0.00, -1.00, 533.0, 337.9)">-</text><text xml:space="preserve" font-family="Monaco,Monaco" font-size="27.0" fill="#CCCCCC" transform="matrix(1.00, 0.00, -0.00, -1.00, 549.2, 337.9)"> </text><text xml:space="preserve" font-family="Monaco,Monaco" font-size="27.0" fill="#CCCCCC" transform="matrix(1.00, 0.00, -0.00, -1.00, 565.4, 337.9)">n</text><text xml:space="preserve" font-family="Monaco,Monaco" font-size="27.0" fill="#CCCCCC" transform="matrix(1.00, 0.00, -0.00, -1.00, 581.6, 337.9)"> </text><text xml:space="preserve" font-family="Monaco,Monaco" font-size="27.0" fill="#CCCCCC" transform="matrix(1.00, 0.00, -0.00, -1.00, 597.8, 337.9)">1</text><text xml:space="preserve" font-family="Monaco,Monaco" font-size="27.0" fill="#CCCCCC" transform="matrix(1.00, 0.00, -0.00, -1.00, 614.1, 337.9)">)</text><text xml:space="preserve" font-family="Monaco,Monaco" font-size="27.0" fill="#CCCCCC" transform="matrix(1.00, 0.00, -0.00, -1.00, 630.3, 337.9)">)</text><text xml:space="preserve" font-family="Monaco,Monaco" font-size="27.0" fill="#CCCCCC" transform="matrix(1.00, 0.00, -0.00, -1.00, 322.4, 301.9)"> </text><text xml:space="preserve" font-family="Monaco,Monaco" font-size="27.0" fill="#CCCCCC" transform="matrix(1.00, 0.00, -0.00, -1.00, 338.6, 301.9)"> </text><text xml:space="preserve" font-family="Monaco,Monaco" font-size="27.0" fill="#CCCCCC" transform="matrix(1.00, 0.00, -0.00, -1.00, 354.8, 301.9)"> </text><text xml:space="preserve" font-family="Monaco,Monaco" font-size="27.0" fill="#CCCCCC" transform="matrix(1.00, 0.00, -0.00, -1.00, 371.0, 301.9)"> </text><text xml:space="preserve" font-family="Monaco,Monaco" font-size="27.0" fill="#CCCCCC" transform="matrix(1.00, 0.00, -0.00, -1.00, 387.2, 301.9)"> </text><text xml:space="preserve" font-family="Monaco,Monaco" font-size="27.0" fill="#CCCCCC" transform="matrix(1.00, 0.00, -0.00, -1.00, 403.4, 301.9)"> </text><text xml:space="preserve" font-family="Monaco,Monaco" font-size="27.0" fill="#CCCCCC" transform="matrix(1.00, 0.00, -0.00, -1.00, 419.6, 301.9)"> </text><text xml:space="preserve" font-family="Monaco,Monaco" font-size="27.0" fill="#CCCCCC" transform="matrix(1.00, 0.00, -0.00, -1.00, 435.8, 301.9)">(</text><text xml:space="preserve" font-family="Monaco,Monaco" font-size="27.0" fill="#CCCCCC" transform="matrix(1.00, 0.00, -0.00, -1.00, 452.0, 301.9)">f</text><text xml:space="preserve" font-family="Monaco,Monaco" font-size="27.0" fill="#CCCCCC" transform="matrix(1.00, 0.00, -0.00, -1.00, 468.2, 301.9)">i</text><text xml:space="preserve" font-family="Monaco,Monaco" font-size="27.0" fill="#CCCCCC" transform="matrix(1.00, 0.00, -0.00, -1.00, 484.4, 301.9)">b</text><text xml:space="preserve" font-family="Monaco,Monaco" font-size="27.0" fill="#CCCCCC" transform="matrix(1.00, 0.00, -0.00, -1.00, 500.6, 301.9)"> </text><text xml:space="preserve" font-family="Monaco,Monaco" font-size="27.0" fill="#CCCCCC" transform="matrix(1.00, 0.00, -0.00, -1.00, 516.8, 301.9)">(</text><text xml:space="preserve" font-family="Monaco,Monaco" font-size="27.0" fill="#CCCCCC" transform="matrix(1.00, 0.00, -0.00, -1.00, 533.0, 301.9)">-</text><text xml:space="preserve" font-family="Monaco,Monaco" font-size="27.0" fill="#CCCCCC" transform="matrix(1.00, 0.00, -0.00, -1.00, 549.2, 301.9)"> </text><text xml:space="preserve" font-family="Monaco,Monaco" font-size="27.0" fill="#CCCCCC" transform="matrix(1.00, 0.00, -0.00, -1.00, 565.4, 301.9)">n</text><text xml:space="preserve" font-family="Monaco,Monaco" font-size="27.0" fill="#CCCCCC" transform="matrix(1.00, 0.00, -0.00, -1.00, 581.7, 301.9)"> </text><text xml:space="preserve" font-family="Monaco,Monaco" font-size="27.0" fill="#CCCCCC" transform="matrix(1.00, 0.00, -0.00, -1.00, 597.9, 301.9)">2</text><text xml:space="preserve" font-family="Monaco,Monaco" font-size="27.0" fill="#CCCCCC" transform="matrix(1.00, 0.00, -0.00, -1.00, 614.1, 301.9)">)</text><text xml:space="preserve" font-family="Monaco,Monaco" font-size="27.0" fill="#CCCCCC" transform="matrix(1.00, 0.00, -0.00, -1.00, 630.3, 301.9)">)</text><text xml:space="preserve" font-family="Monaco,Monaco" font-size="27.0" fill="#CCCCCC" transform="matrix(1.00, 0.00, -0.00, -1.00, 646.5, 301.9)">)</text><text xml:space="preserve" font-family="Monaco,Monaco" font-size="27.0" fill="#CCCCCC" transform="matrix(1.00, 0.00, -0.00, -1.00, 662.7, 301.9)">)</text><text xml:space="preserve" font-family="Monaco,Monaco" font-size="27.0" fill="#CCCCCC" transform="matrix(1.00, 0.00, -0.00, -1.00, 678.9, 301.9)">)</text></g></svg>