<?xml version="1.0" encoding="UTF-8" standalone="no"?><svg xmlns="http://www.w3.org/2000/svg" xmlns:xlink="http://www.w3.org/1999/xlink" clip-rule="evenodd" stroke-miterlimit="10" viewBox="0 0 1024 768"><desc>SVG generated by Keynote</desc><defs></defs><g transform="matrix(1.00, 0.00, -0.00, -1.00, 0.0, 768.0)"><path d="M 0.0 768.0 L 1024.0 768.0 L 1024.0 0.0 L 0.0 0.0 Z M 0.0 768.0 " fill="#000000"></path><path d="M 100.3 489.0 L 197.5 489.0 L 197.5 453.0 L 100.3 453.0 Z M 100.3 489.0 " fill="#000000"></path><path d="M 359.5 489.0 L 375.7 489.0 L 375.7 453.0 L 359.5 453.0 Z M 359.5 489.0 " fill="#000000"></path><path d="M 440.5 453.0 L 456.7 453.0 L 456.7 417.0 L 440.5 417.0 Z M 440.5 453.0 " fill="#000000"></path><path d="M 635.0 453.0 L 651.2 453.0 L 651.2 417.0 L 635.0 417.0 Z M 635.0 453.0 " fill="#000000"></path><path d="M 537.7 417.0 L 554.0 417.0 L 554.0 381.0 L 537.7 381.0 Z M 537.7 417.0 " fill="#000000"></path><path d="M 667.4 417.0 L 683.6 417.0 L 683.6 381.0 L 667.4 381.0 Z M 667.4 417.0 " fill="#000000"></path><g><clipPath id="clip0x7ffe17f16e00"><path d="M 75.6 347.3 L 944.5 347.3 L 944.5 489.0 L 75.6 489.0 Z M 75.6 347.3 "></path></clipPath><g clip-path="url(#clip0x7ffe17f16e00)"><path d="M 602.6 381.0 L 732.2 381.0 L 732.2 345.0 L 602.6 345.0 Z M 602.6 381.0 " fill="#000000"></path></g></g><text xml:space="preserve" font-family="Courier,Courier" font-size="27.0" fill="#FFFFFF" transform="matrix(1.00, 0.00, -0.00, -1.00, 84.1, 462.0)">@</text><text xml:space="preserve" font-family="Monaco,Monaco" font-size="27.0" fill="#A7C8F5" transform="matrix(1.00, 0.00, -0.00, -1.00, 100.3, 462.0)">s</text><text xml:space="preserve" font-family="Monaco,Monaco" font-size="27.0" fill="#A7C8F5" transform="matrix(1.00, 0.00, -0.00, -1.00, 116.5, 462.0)">o</text><text xml:space="preserve" font-family="Monaco,Monaco" font-size="27.0" fill="#A7C8F5" transform="matrix(1.00, 0.00, -0.00, -1.00, 132.7, 462.0)">r</text><text xml:space="preserve" font-family="Monaco,Monaco" font-size="27.0" fill="#A7C8F5" transform="matrix(1.00, 0.00, -0.00, -1.00, 148.9, 462.0)">t</text><text xml:space="preserve" font-family="Monaco,Monaco" font-size="27.0" fill="#A7C8F5" transform="matrix(1.00, 0.00, -0.00, -1.00, 165.1, 462.0)">e</text><text xml:space="preserve" font-family="Monaco,Monaco" font-size="27.0" fill="#A7C8F5" transform="matrix(1.00, 0.00, -0.00, -1.00, 181.3, 462.0)">d</text><text xml:space="preserve" font-family="Courier,Courier" font-size="27.0" fill="#FFFFFF" transform="matrix(1.00, 0.00, -0.00, -1.00, 197.5, 462.0)"> </text><text xml:space="preserve" font-family="Courier,Courier" font-size="27.0" fill="#FFFFFF" transform="matrix(1.00, 0.00, -0.00, -1.00, 213.7, 462.0)">=</text><text xml:space="preserve" font-family="Courier,Courier" font-size="27.0" fill="#FFFFFF" transform="matrix(1.00, 0.00, -0.00, -1.00, 229.9, 462.0)"> </text><text xml:space="preserve" font-family="Monaco,Monaco" font-size="27.0" fill="#FFFFFF" transform="matrix(1.00, 0.00, -0.00, -1.00, 246.1, 462.0)">m</text><text xml:space="preserve" font-family="Monaco,Monaco" font-size="27.0" fill="#FFFFFF" transform="matrix(1.00, 0.00, -0.00, -1.00, 262.3, 462.0)">a</text><text xml:space="preserve" font-family="Monaco,Monaco" font-size="27.0" fill="#FFFFFF" transform="matrix(1.00, 0.00, -0.00, -1.00, 278.5, 462.0)">p</text><text xml:space="preserve" font-family="Monaco,Monaco" font-size="27.0" fill="#FFFFFF" transform="matrix(1.00, 0.00, -0.00, -1.00, 294.7, 462.0)"> </text><text xml:space="preserve" font-family="Monaco,Monaco" font-size="27.0" fill="#FFFFFF" transform="matrix(1.00, 0.00, -0.00, -1.00, 310.9, 462.0)">{</text><text xml:space="preserve" font-family="Monaco,Monaco" font-size="27.0" fill="#FFFFFF" transform="matrix(1.00, 0.00, -0.00, -1.00, 327.1, 462.0)"> </text><text xml:space="preserve" font-family="Monaco,Monaco" font-size="27.0" fill="#FFFFFF" transform="matrix(1.00, 0.00, -0.00, -1.00, 343.3, 462.0)">$</text><text xml:space="preserve" font-family="Monaco,Monaco" font-size="27.0" fill="#A9CAEB" transform="matrix(1.00, 0.00, -0.00, -1.00, 359.5, 462.0)">_</text><text xml:space="preserve" font-family="Monaco,Monaco" font-size="27.0" fill="#FFFFFF" transform="matrix(1.00, 0.00, -0.00, -1.00, 375.7, 462.0)">-</text><text xml:space="preserve" font-family="Monaco,Monaco" font-size="27.0" fill="#FFFFFF" transform="matrix(1.00, 0.00, -0.00, -1.00, 391.9, 462.0)">&gt;</text><text xml:space="preserve" font-family="Monaco,Monaco" font-size="27.0" fill="#FFFFFF" transform="matrix(1.00, 0.00, -0.00, -1.00, 408.1, 462.0)">[</text><text xml:space="preserve" font-family="Monaco,Monaco" font-size="27.0" fill="#FFFFFF" transform="matrix(1.00, 0.00, -0.00, -1.00, 424.3, 462.0)">0</text><text xml:space="preserve" font-family="Monaco,Monaco" font-size="27.0" fill="#FFFFFF" transform="matrix(1.00, 0.00, -0.00, -1.00, 440.5, 462.0)">]</text><text xml:space="preserve" font-family="Monaco,Monaco" font-size="27.0" fill="#FFFFFF" transform="matrix(1.00, 0.00, -0.00, -1.00, 456.7, 462.0)"> </text><text xml:space="preserve" font-family="Monaco,Monaco" font-size="27.0" fill="#FFFFFF" transform="matrix(1.00, 0.00, -0.00, -1.00, 473.0, 462.0)">}</text><text xml:space="preserve" font-family="Monaco,Monaco" font-size="27.0" fill="#FFFFFF" transform="matrix(1.00, 0.00, -0.00, -1.00, 84.1, 426.0)"> </text><text xml:space="preserve" font-family="Monaco,Monaco" font-size="27.0" fill="#FFFFFF" transform="matrix(1.00, 0.00, -0.00, -1.00, 100.3, 426.0)"> </text><text xml:space="preserve" font-family="Monaco,Monaco" font-size="27.0" fill="#FFFFFF" transform="matrix(1.00, 0.00, -0.00, -1.00, 116.5, 426.0)"> </text><text xml:space="preserve" font-family="Monaco,Monaco" font-size="27.0" fill="#FFFFFF" transform="matrix(1.00, 0.00, -0.00, -1.00, 132.7, 426.0)"> </text><text xml:space="preserve" font-family="Monaco,Monaco" font-size="27.0" fill="#FFFFFF" transform="matrix(1.00, 0.00, -0.00, -1.00, 148.9, 426.0)"> </text><text xml:space="preserve" font-family="Monaco,Monaco" font-size="27.0" fill="#FFFFFF" transform="matrix(1.00, 0.00, -0.00, -1.00, 165.1, 426.0)"> </text><text xml:space="preserve" font-family="Monaco,Monaco" font-size="27.0" fill="#FFFFFF" transform="matrix(1.00, 0.00, -0.00, -1.00, 181.3, 426.0)"> </text><text xml:space="preserve" font-family="Monaco,Monaco" font-size="27.0" fill="#FFFFFF" transform="matrix(1.00, 0.00, -0.00, -1.00, 197.5, 426.0)"> </text><text xml:space="preserve" font-family="Monaco,Monaco" font-size="27.0" fill="#FFFFFF" transform="matrix(1.00, 0.00, -0.00, -1.00, 213.7, 426.0)"> </text><text xml:space="preserve" font-family="Monaco,Monaco" font-size="27.0" fill="#FFFFFF" transform="matrix(1.00, 0.00, -0.00, -1.00, 229.9, 426.0)"> </text><text xml:space="preserve" font-family="Monaco,Monaco" font-size="27.0" fill="#FFFFFF" transform="matrix(1.00, 0.00, -0.00, -1.00, 246.1, 426.0)"> </text><text xml:space="preserve" font-family="Monaco,Monaco" font-size="27.0" fill="#FFFFFF" transform="matrix(1.00, 0.00, -0.00, -1.00, 262.3, 426.0)"> </text><text xml:space="preserve" font-family="Monaco,Monaco" font-size="27.0" fill="#FFFFFF" transform="matrix(1.00, 0.00, -0.00, -1.00, 278.5, 426.0)"> </text><text xml:space="preserve" font-family="Monaco,Monaco" font-size="27.0" fill="#FFFFFF" transform="matrix(1.00, 0.00, -0.00, -1.00, 294.7, 426.0)"> </text><text xml:space="preserve" font-family="Monaco,Monaco" font-size="27.0" fill="#FFFFFF" transform="matrix(1.00, 0.00, -0.00, -1.00, 310.9, 426.0)">s</text><text xml:space="preserve" font-family="Monaco,Monaco" font-size="27.0" fill="#FFFFFF" transform="matrix(1.00, 0.00, -0.00, -1.00, 327.2, 426.0)">o</text><text xml:space="preserve" font-family="Monaco,Monaco" font-size="27.0" fill="#FFFFFF" transform="matrix(1.00, 0.00, -0.00, -1.00, 343.4, 426.0)">r</text><text xml:space="preserve" font-family="Monaco,Monaco" font-size="27.0" fill="#FFFFFF" transform="matrix(1.00, 0.00, -0.00, -1.00, 359.6, 426.0)">t</text><text xml:space="preserve" font-family="Monaco,Monaco" font-size="27.0" fill="#FFFFFF" transform="matrix(1.00, 0.00, -0.00, -1.00, 375.8, 426.0)"> </text><text xml:space="preserve" font-family="Monaco,Monaco" font-size="27.0" fill="#FFFFFF" transform="matrix(1.00, 0.00, -0.00, -1.00, 392.0, 426.0)">{</text><text xml:space="preserve" font-family="Monaco,Monaco" font-size="27.0" fill="#FFFFFF" transform="matrix(1.00, 0.00, -0.00, -1.00, 408.2, 426.0)"> </text><text xml:space="preserve" font-family="Monaco,Monaco" font-size="27.0" fill="#FFFFFF" transform="matrix(1.00, 0.00, -0.00, -1.00, 424.4, 426.0)">$</text><text xml:space="preserve" font-family="Monaco,Monaco" font-size="27.0" fill="#A9CAEB" transform="matrix(1.00, 0.00, -0.00, -1.00, 440.5, 426.0)">a</text><text xml:space="preserve" font-family="Monaco,Monaco" font-size="27.0" fill="#FFFFFF" transform="matrix(1.00, 0.00, -0.00, -1.00, 456.7, 426.0)">-</text><text xml:space="preserve" font-family="Monaco,Monaco" font-size="27.0" fill="#FFFFFF" transform="matrix(1.00, 0.00, -0.00, -1.00, 472.9, 426.0)">&gt;</text><text xml:space="preserve" font-family="Monaco,Monaco" font-size="27.0" fill="#FFFFFF" transform="matrix(1.00, 0.00, -0.00, -1.00, 489.1, 426.0)">[</text><text xml:space="preserve" font-family="Monaco,Monaco" font-size="27.0" fill="#FFFFFF" transform="matrix(1.00, 0.00, -0.00, -1.00, 505.4, 426.0)">1</text><text xml:space="preserve" font-family="Monaco,Monaco" font-size="27.0" fill="#FFFFFF" transform="matrix(1.00, 0.00, -0.00, -1.00, 521.6, 426.0)">]</text><text xml:space="preserve" font-family="Monaco,Monaco" font-size="27.0" fill="#FFFFFF" transform="matrix(1.00, 0.00, -0.00, -1.00, 537.8, 426.0)"> </text><text xml:space="preserve" font-family="Monaco,Monaco" font-size="27.0" fill="#FFFFFF" transform="matrix(1.00, 0.00, -0.00, -1.00, 554.0, 426.0)">c</text><text xml:space="preserve" font-family="Monaco,Monaco" font-size="27.0" fill="#FFFFFF" transform="matrix(1.00, 0.00, -0.00, -1.00, 570.2, 426.0)">m</text><text xml:space="preserve" font-family="Monaco,Monaco" font-size="27.0" fill="#FFFFFF" transform="matrix(1.00, 0.00, -0.00, -1.00, 586.4, 426.0)">p</text><text xml:space="preserve" font-family="Monaco,Monaco" font-size="27.0" fill="#FFFFFF" transform="matrix(1.00, 0.00, -0.00, -1.00, 602.6, 426.0)"> </text><text xml:space="preserve" font-family="Monaco,Monaco" font-size="27.0" fill="#FFFFFF" transform="matrix(1.00, 0.00, -0.00, -1.00, 618.8, 426.0)">$</text><text xml:space="preserve" font-family="Monaco,Monaco" font-size="27.0" fill="#A9CAEB" transform="matrix(1.00, 0.00, -0.00, -1.00, 635.0, 426.0)">b</text><text xml:space="preserve" font-family="Monaco,Monaco" font-size="27.0" fill="#FFFFFF" transform="matrix(1.00, 0.00, -0.00, -1.00, 651.2, 426.0)">-</text><text xml:space="preserve" font-family="Monaco,Monaco" font-size="27.0" fill="#FFFFFF" transform="matrix(1.00, 0.00, -0.00, -1.00, 667.4, 426.0)">&gt;</text><text xml:space="preserve" font-family="Monaco,Monaco" font-size="27.0" fill="#FFFFFF" transform="matrix(1.00, 0.00, -0.00, -1.00, 683.6, 426.0)">[</text><text xml:space="preserve" font-family="Monaco,Monaco" font-size="27.0" fill="#FFFFFF" transform="matrix(1.00, 0.00, -0.00, -1.00, 699.8, 426.0)">1</text><text xml:space="preserve" font-family="Monaco,Monaco" font-size="27.0" fill="#FFFFFF" transform="matrix(1.00, 0.00, -0.00, -1.00, 716.0, 426.0)">]</text><text xml:space="preserve" font-family="Monaco,Monaco" font-size="27.0" fill="#FFFFFF" transform="matrix(1.00, 0.00, -0.00, -1.00, 732.2, 426.0)"> </text><text xml:space="preserve" font-family="Monaco,Monaco" font-size="27.0" fill="#FFFFFF" transform="matrix(1.00, 0.00, -0.00, -1.00, 748.4, 426.0)">}</text><text xml:space="preserve" font-family="Monaco,Monaco" font-size="27.0" fill="#FFFFFF" transform="matrix(1.00, 0.00, -0.00, -1.00, 84.1, 390.0)"> </text><text xml:space="preserve" font-family="Monaco,Monaco" font-size="27.0" fill="#FFFFFF" transform="matrix(1.00, 0.00, -0.00, -1.00, 100.3, 390.0)"> </text><text xml:space="preserve" font-family="Monaco,Monaco" font-size="27.0" fill="#FFFFFF" transform="matrix(1.00, 0.00, -0.00, -1.00, 116.5, 390.0)"> </text><text xml:space="preserve" font-family="Monaco,Monaco" font-size="27.0" fill="#FFFFFF" transform="matrix(1.00, 0.00, -0.00, -1.00, 132.7, 390.0)"> </text><text xml:space="preserve" font-family="Monaco,Monaco" font-size="27.0" fill="#FFFFFF" transform="matrix(1.00, 0.00, -0.00, -1.00, 148.9, 390.0)"> </text><text xml:space="preserve" font-family="Monaco,Monaco" font-size="27.0" fill="#FFFFFF" transform="matrix(1.00, 0.00, -0.00, -1.00, 165.1, 390.0)"> </text><text xml:space="preserve" font-family="Monaco,Monaco" font-size="27.0" fill="#FFFFFF" transform="matrix(1.00, 0.00, -0.00, -1.00, 181.3, 390.0)"> </text><text xml:space="preserve" font-family="Monaco,Monaco" font-size="27.0" fill="#FFFFFF" transform="matrix(1.00, 0.00, -0.00, -1.00, 197.5, 390.0)"> </text><text xml:space="preserve" font-family="Monaco,Monaco" font-size="27.0" fill="#FFFFFF" transform="matrix(1.00, 0.00, -0.00, -1.00, 213.7, 390.0)"> </text><text xml:space="preserve" font-family="Monaco,Monaco" font-size="27.0" fill="#FFFFFF" transform="matrix(1.00, 0.00, -0.00, -1.00, 229.9, 390.0)"> </text><text xml:space="preserve" font-family="Monaco,Monaco" font-size="27.0" fill="#FFFFFF" transform="matrix(1.00, 0.00, -0.00, -1.00, 246.1, 390.0)"> </text><text xml:space="preserve" font-family="Monaco,Monaco" font-size="27.0" fill="#FFFFFF" transform="matrix(1.00, 0.00, -0.00, -1.00, 262.3, 390.0)"> </text><text xml:space="preserve" font-family="Monaco,Monaco" font-size="27.0" fill="#FFFFFF" transform="matrix(1.00, 0.00, -0.00, -1.00, 278.5, 390.0)"> </text><text xml:space="preserve" font-family="Monaco,Monaco" font-size="27.0" fill="#FFFFFF" transform="matrix(1.00, 0.00, -0.00, -1.00, 294.7, 390.0)"> </text><text xml:space="preserve" font-family="Monaco,Monaco" font-size="27.0" fill="#FFFFFF" transform="matrix(1.00, 0.00, -0.00, -1.00, 310.9, 390.0)"> </text><text xml:space="preserve" font-family="Monaco,Monaco" font-size="27.0" fill="#FFFFFF" transform="matrix(1.00, 0.00, -0.00, -1.00, 327.2, 390.0)"> </text><text xml:space="preserve" font-family="Monaco,Monaco" font-size="27.0" fill="#FFFFFF" transform="matrix(1.00, 0.00, -0.00, -1.00, 343.4, 390.0)"> </text><text xml:space="preserve" font-family="Monaco,Monaco" font-size="27.0" fill="#FFFFFF" transform="matrix(1.00, 0.00, -0.00, -1.00, 359.6, 390.0)"> </text><text xml:space="preserve" font-family="Monaco,Monaco" font-size="27.0" fill="#FFFFFF" transform="matrix(1.00, 0.00, -0.00, -1.00, 375.8, 390.0)"> </text><text xml:space="preserve" font-family="Monaco,Monaco" font-size="27.0" fill="#FFFFFF" transform="matrix(1.00, 0.00, -0.00, -1.00, 392.0, 390.0)">m</text><text xml:space="preserve" font-family="Monaco,Monaco" font-size="27.0" fill="#FFFFFF" transform="matrix(1.00, 0.00, -0.00, -1.00, 408.2, 390.0)">a</text><text xml:space="preserve" font-family="Monaco,Monaco" font-size="27.0" fill="#FFFFFF" transform="matrix(1.00, 0.00, -0.00, -1.00, 424.4, 390.0)">p</text><text xml:space="preserve" font-family="Monaco,Monaco" font-size="27.0" fill="#FFFFFF" transform="matrix(1.00, 0.00, -0.00, -1.00, 440.6, 390.0)"> </text><text xml:space="preserve" font-family="Monaco,Monaco" font-size="27.0" fill="#FFFFFF" transform="matrix(1.00, 0.00, -0.00, -1.00, 456.8, 390.0)"> </text><text xml:space="preserve" font-family="Monaco,Monaco" font-size="27.0" fill="#FFFFFF" transform="matrix(1.00, 0.00, -0.00, -1.00, 473.0, 390.0)">{</text><text xml:space="preserve" font-family="Monaco,Monaco" font-size="27.0" fill="#FFFFFF" transform="matrix(1.00, 0.00, -0.00, -1.00, 489.2, 390.0)"> </text><text xml:space="preserve" font-family="Monaco,Monaco" font-size="27.0" fill="#FFFFFF" transform="matrix(1.00, 0.00, -0.00, -1.00, 505.4, 390.0)">[</text><text xml:space="preserve" font-family="Monaco,Monaco" font-size="27.0" fill="#FFFFFF" transform="matrix(1.00, 0.00, -0.00, -1.00, 521.6, 390.0)">$</text><text xml:space="preserve" font-family="Monaco,Monaco" font-size="27.0" fill="#A9CAEB" transform="matrix(1.00, 0.00, -0.00, -1.00, 537.7, 390.0)">_</text><text xml:space="preserve" font-family="Monaco,Monaco" font-size="27.0" fill="#FFFFFF" transform="matrix(1.00, 0.00, -0.00, -1.00, 554.0, 390.0)">,</text><text xml:space="preserve" font-family="Monaco,Monaco" font-size="27.0" fill="#FFFFFF" transform="matrix(1.00, 0.00, -0.00, -1.00, 570.2, 390.0)"> </text><text xml:space="preserve" font-family="Monaco,Monaco" font-size="27.0" fill="#FFFFFF" transform="matrix(1.00, 0.00, -0.00, -1.00, 586.4, 390.0)">f</text><text xml:space="preserve" font-family="Monaco,Monaco" font-size="27.0" fill="#FFFFFF" transform="matrix(1.00, 0.00, -0.00, -1.00, 602.6, 390.0)">o</text><text xml:space="preserve" font-family="Monaco,Monaco" font-size="27.0" fill="#FFFFFF" transform="matrix(1.00, 0.00, -0.00, -1.00, 618.8, 390.0)">o</text><text xml:space="preserve" font-family="Monaco,Monaco" font-size="27.0" fill="#FFFFFF" transform="matrix(1.00, 0.00, -0.00, -1.00, 635.0, 390.0)">(</text><text xml:space="preserve" font-family="Monaco,Monaco" font-size="27.0" fill="#FFFFFF" transform="matrix(1.00, 0.00, -0.00, -1.00, 651.2, 390.0)">$</text><text xml:space="preserve" font-family="Monaco,Monaco" font-size="27.0" fill="#A9CAEB" transform="matrix(1.00, 0.00, -0.00, -1.00, 667.4, 390.0)">_</text><text xml:space="preserve" font-family="Monaco,Monaco" font-size="27.0" fill="#FFFFFF" transform="matrix(1.00, 0.00, -0.00, -1.00, 683.6, 390.0)">)</text><text xml:space="preserve" font-family="Monaco,Monaco" font-size="27.0" fill="#FFFFFF" transform="matrix(1.00, 0.00, -0.00, -1.00, 699.8, 390.0)">]</text><text xml:space="preserve" font-family="Monaco,Monaco" font-size="27.0" fill="#FFFFFF" transform="matrix(1.00, 0.00, -0.00, -1.00, 716.0, 390.0)"> </text><text xml:space="preserve" font-family="Monaco,Monaco" font-size="27.0" fill="#FFFFFF" transform="matrix(1.00, 0.00, -0.00, -1.00, 732.2, 390.0)">}</text><text xml:space="preserve" font-family="Monaco,Monaco" font-size="27.0" fill="#FFFFFF" transform="matrix(1.00, 0.00, -0.00, -1.00, 84.1, 354.0)"> </text><text xml:space="preserve" font-family="Monaco,Monaco" font-size="27.0" fill="#FFFFFF" transform="matrix(1.00, 0.00, -0.00, -1.00, 100.3, 354.0)"> </text><text xml:space="preserve" font-family="Monaco,Monaco" font-size="27.0" fill="#FFFFFF" transform="matrix(1.00, 0.00, -0.00, -1.00, 116.5, 354.0)"> </text><text xml:space="preserve" font-family="Monaco,Monaco" font-size="27.0" fill="#FFFFFF" transform="matrix(1.00, 0.00, -0.00, -1.00, 132.7, 354.0)"> </text><text xml:space="preserve" font-family="Monaco,Monaco" font-size="27.0" fill="#FFFFFF" transform="matrix(1.00, 0.00, -0.00, -1.00, 148.9, 354.0)"> </text><text xml:space="preserve" font-family="Monaco,Monaco" font-size="27.0" fill="#FFFFFF" transform="matrix(1.00, 0.00, -0.00, -1.00, 165.1, 354.0)"> </text><text xml:space="preserve" font-family="Monaco,Monaco" font-size="27.0" fill="#FFFFFF" transform="matrix(1.00, 0.00, -0.00, -1.00, 181.3, 354.0)"> </text><text xml:space="preserve" font-family="Monaco,Monaco" font-size="27.0" fill="#FFFFFF" transform="matrix(1.00, 0.00, -0.00, -1.00, 197.5, 354.0)"> </text><text xml:space="preserve" font-family="Monaco,Monaco" font-size="27.0" fill="#FFFFFF" transform="matrix(1.00, 0.00, -0.00, -1.00, 213.7, 354.0)"> </text><text xml:space="preserve" font-family="Monaco,Monaco" font-size="27.0" fill="#FFFFFF" transform="matrix(1.00, 0.00, -0.00, -1.00, 229.9, 354.0)"> </text><text xml:space="preserve" font-family="Monaco,Monaco" font-size="27.0" fill="#FFFFFF" transform="matrix(1.00, 0.00, -0.00, -1.00, 246.1, 354.0)"> </text><text xml:space="preserve" font-family="Monaco,Monaco" font-size="27.0" fill="#FFFFFF" transform="matrix(1.00, 0.00, -0.00, -1.00, 262.3, 354.0)"> </text><text xml:space="preserve" font-family="Monaco,Monaco" font-size="27.0" fill="#FFFFFF" transform="matrix(1.00, 0.00, -0.00, -1.00, 278.5, 354.0)"> </text><text xml:space="preserve" font-family="Monaco,Monaco" font-size="27.0" fill="#FFFFFF" transform="matrix(1.00, 0.00, -0.00, -1.00, 294.7, 354.0)"> </text><text xml:space="preserve" font-family="Monaco,Monaco" font-size="27.0" fill="#FFFFFF" transform="matrix(1.00, 0.00, -0.00, -1.00, 310.9, 354.0)"> </text><text xml:space="preserve" font-family="Monaco,Monaco" font-size="27.0" fill="#FFFFFF" transform="matrix(1.00, 0.00, -0.00, -1.00, 327.2, 354.0)"> </text><text xml:space="preserve" font-family="Monaco,Monaco" font-size="27.0" fill="#FFFFFF" transform="matrix(1.00, 0.00, -0.00, -1.00, 343.4, 354.0)"> </text><text xml:space="preserve" font-family="Monaco,Monaco" font-size="27.0" fill="#FFFFFF" transform="matrix(1.00, 0.00, -0.00, -1.00, 359.6, 354.0)"> </text><text xml:space="preserve" font-family="Monaco,Monaco" font-size="27.0" fill="#FFFFFF" transform="matrix(1.00, 0.00, -0.00, -1.00, 375.8, 354.0)"> </text><text xml:space="preserve" font-family="Monaco,Monaco" font-size="27.0" fill="#FFFFFF" transform="matrix(1.00, 0.00, -0.00, -1.00, 392.0, 354.0)"> </text><text xml:space="preserve" font-family="Monaco,Monaco" font-size="27.0" fill="#FFFFFF" transform="matrix(1.00, 0.00, -0.00, -1.00, 408.2, 354.0)"> </text><text xml:space="preserve" font-family="Monaco,Monaco" font-size="27.0" fill="#FFFFFF" transform="matrix(1.00, 0.00, -0.00, -1.00, 424.4, 354.0)"> </text><text xml:space="preserve" font-family="Monaco,Monaco" font-size="27.0" fill="#FFFFFF" transform="matrix(1.00, 0.00, -0.00, -1.00, 440.6, 354.0)"> </text><text xml:space="preserve" font-family="Monaco,Monaco" font-size="27.0" fill="#FFFFFF" transform="matrix(1.00, 0.00, -0.00, -1.00, 456.8, 354.0)"> </text><text xml:space="preserve" font-family="Monaco,Monaco" font-size="27.0" fill="#FFFFFF" transform="matrix(1.00, 0.00, -0.00, -1.00, 473.0, 354.0)"> </text><text xml:space="preserve" font-family="Monaco,Monaco" font-size="27.0" fill="#FFFFFF" transform="matrix(1.00, 0.00, -0.00, -1.00, 489.2, 354.0)"> </text><text xml:space="preserve" font-family="Monaco,Monaco" font-size="27.0" fill="#FFFFFF" transform="matrix(1.00, 0.00, -0.00, -1.00, 505.4, 354.0)"> </text><text xml:space="preserve" font-family="Monaco,Monaco" font-size="27.0" fill="#FFFFFF" transform="matrix(1.00, 0.00, -0.00, -1.00, 521.6, 354.0)"> </text><text xml:space="preserve" font-family="Monaco,Monaco" font-size="27.0" fill="#FFFFFF" transform="matrix(1.00, 0.00, -0.00, -1.00, 537.8, 354.0)"> </text><text xml:space="preserve" font-family="Monaco,Monaco" font-size="27.0" fill="#FFFFFF" transform="matrix(1.00, 0.00, -0.00, -1.00, 554.0, 354.0)"> </text><text xml:space="preserve" font-family="Monaco,Monaco" font-size="27.0" fill="#FFFFFF" transform="matrix(1.00, 0.00, -0.00, -1.00, 570.2, 354.0)"> </text><text xml:space="preserve" font-family="Monaco,Monaco" font-size="27.0" fill="#FFFFFF" transform="matrix(1.00, 0.00, -0.00, -1.00, 586.4, 354.0)">@</text><text xml:space="preserve" font-family="Monaco,Monaco" font-size="27.0" fill="#A9CAEB" transform="matrix(1.00, 0.00, -0.00, -1.00, 602.6, 354.0)">u</text><text xml:space="preserve" font-family="Monaco,Monaco" font-size="27.0" fill="#A9CAEB" transform="matrix(1.00, 0.00, -0.00, -1.00, 618.8, 354.0)">n</text><text xml:space="preserve" font-family="Monaco,Monaco" font-size="27.0" fill="#A9CAEB" transform="matrix(1.00, 0.00, -0.00, -1.00, 635.0, 354.0)">s</text><text xml:space="preserve" font-family="Monaco,Monaco" font-size="27.0" fill="#A9CAEB" transform="matrix(1.00, 0.00, -0.00, -1.00, 651.2, 354.0)">o</text><text xml:space="preserve" font-family="Monaco,Monaco" font-size="27.0" fill="#A9CAEB" transform="matrix(1.00, 0.00, -0.00, -1.00, 667.4, 354.0)">r</text><text xml:space="preserve" font-family="Monaco,Monaco" font-size="27.0" fill="#A9CAEB" transform="matrix(1.00, 0.00, -0.00, -1.00, 683.6, 354.0)">t</text><text xml:space="preserve" font-family="Monaco,Monaco" font-size="27.0" fill="#A9CAEB" transform="matrix(1.00, 0.00, -0.00, -1.00, 699.8, 354.0)">e</text><text xml:space="preserve" font-family="Monaco,Monaco" font-size="27.0" fill="#A9CAEB" transform="matrix(1.00, 0.00, -0.00, -1.00, 716.0, 354.0)">d</text><text xml:space="preserve" font-family="Monaco,Monaco" font-size="27.0" fill="#FFFFFF" transform="matrix(1.00, 0.00, -0.00, -1.00, 732.2, 354.0)">;</text><text xml:space="preserve" font-family="HelveticaNeue-LightItalic,Helvetica Neue" font-style="italic" font-size="24.0" fill="#FEFFFF" transform="matrix(1.00, 0.00, -0.00, -1.00, 238.2, 238.9)">-</text><text xml:space="preserve" font-family="HelveticaNeue-LightItalic,Helvetica Neue" font-style="italic" font-size="24.0" fill="#FEFFFF" transform="matrix(1.00, 0.00, -0.00, -1.00, 247.1, 238.9)"> </text><text xml:space="preserve" font-family="HelveticaNeue-LightItalic,Helvetica Neue" font-style="italic" font-size="24.0" fill="#FEFFFF" transform="matrix(1.00, 0.00, -0.00, -1.00, 253.8, 238.9)">R</text><text xml:space="preserve" font-family="HelveticaNeue-LightItalic,Helvetica Neue" font-style="italic" font-size="24.0" fill="#FEFFFF" transform="matrix(1.00, 0.00, -0.00, -1.00, 269.3, 238.9)">a</text><text xml:space="preserve" font-family="HelveticaNeue-LightItalic,Helvetica Neue" font-style="italic" font-size="24.0" fill="#FEFFFF" transform="matrix(1.00, 0.00, -0.00, -1.00, 281.8, 238.9)">n</text><text xml:space="preserve" font-family="HelveticaNeue-LightItalic,Helvetica Neue" font-style="italic" font-size="24.0" fill="#FEFFFF" transform="matrix(1.00, 0.00, -0.00, -1.00, 294.7, 238.9)">d</text><text xml:space="preserve" font-family="HelveticaNeue-LightItalic,Helvetica Neue" font-style="italic" font-size="24.0" fill="#FEFFFF" transform="matrix(1.00, 0.00, -0.00, -1.00, 308.4, 238.9)">a</text><text xml:space="preserve" font-family="HelveticaNeue-LightItalic,Helvetica Neue" font-style="italic" font-size="24.0" fill="#FEFFFF" transform="matrix(1.00, 0.00, -0.00, -1.00, 320.9, 238.9)">l</text><text xml:space="preserve" font-family="HelveticaNeue-LightItalic,Helvetica Neue" font-style="italic" font-size="24.0" fill="#FEFFFF" transform="matrix(1.00, 0.00, -0.00, -1.00, 325.3, 238.9)"> </text><text xml:space="preserve" font-family="HelveticaNeue-LightItalic,Helvetica Neue" font-style="italic" font-size="24.0" fill="#FEFFFF" transform="matrix(1.00, 0.00, -0.00, -1.00, 332.0, 238.9)">L</text><text xml:space="preserve" font-family="HelveticaNeue-LightItalic,Helvetica Neue" font-style="italic" font-size="24.0" fill="#FEFFFF" transform="matrix(1.00, 0.00, -0.00, -1.00, 344.9, 238.9)">.</text><text xml:space="preserve" font-family="HelveticaNeue-LightItalic,Helvetica Neue" font-style="italic" font-size="24.0" fill="#FEFFFF" transform="matrix(1.00, 0.00, -0.00, -1.00, 351.6, 238.9)"> </text><text xml:space="preserve" font-family="HelveticaNeue-LightItalic,Helvetica Neue" font-style="italic" font-size="24.0" fill="#FEFFFF" transform="matrix(1.00, 0.00, -0.00, -1.00, 358.2, 238.9)">S</text><text xml:space="preserve" font-family="HelveticaNeue-LightItalic,Helvetica Neue" font-style="italic" font-size="24.0" fill="#FEFFFF" transform="matrix(1.00, 0.00, -0.00, -1.00, 373.3, 238.9)">c</text><text xml:space="preserve" font-family="HelveticaNeue-LightItalic,Helvetica Neue" font-style="italic" font-size="24.0" fill="#FEFFFF" transform="matrix(1.00, 0.00, -0.00, -1.00, 385.8, 238.9)">h</text><text xml:space="preserve" font-family="HelveticaNeue-LightItalic,Helvetica Neue" font-style="italic" font-size="24.0" fill="#FEFFFF" transform="matrix(1.00, 0.00, -0.00, -1.00, 398.7, 238.9)">w</text><text xml:space="preserve" font-family="HelveticaNeue-LightItalic,Helvetica Neue" font-style="italic" font-size="24.0" fill="#FEFFFF" transform="matrix(1.00, 0.00, -0.00, -1.00, 416.5, 238.9)">a</text><text xml:space="preserve" font-family="HelveticaNeue-LightItalic,Helvetica Neue" font-style="italic" font-size="24.0" fill="#FEFFFF" transform="matrix(1.00, 0.00, -0.00, -1.00, 428.9, 238.9)">r</text><text xml:space="preserve" font-family="HelveticaNeue-LightItalic,Helvetica Neue" font-style="italic" font-size="24.0" fill="#FEFFFF" transform="matrix(1.00, 0.00, -0.00, -1.00, 436.5, 238.9)">t</text><text xml:space="preserve" font-family="HelveticaNeue-LightItalic,Helvetica Neue" font-style="italic" font-size="24.0" fill="#FEFFFF" transform="matrix(1.00, 0.00, -0.00, -1.00, 443.6, 238.9)">z</text><text xml:space="preserve" font-family="HelveticaNeue-LightItalic,Helvetica Neue" font-style="italic" font-size="24.0" fill="#FEFFFF" transform="matrix(1.00, 0.00, -0.00, -1.00, 453.8, 238.9)">,</text><text xml:space="preserve" font-family="HelveticaNeue-LightItalic,Helvetica Neue" font-style="italic" font-size="24.0" fill="#FEFFFF" transform="matrix(1.00, 0.00, -0.00, -1.00, 460.5, 238.9)"> </text><text xml:space="preserve" font-family="HelveticaNeue-LightItalic,Helvetica Neue" font-style="italic" font-size="24.0" fill="#FEFFFF" transform="matrix(1.00, 0.00, -0.00, -1.00, 467.2, 238.9)">c</text><text xml:space="preserve" font-family="HelveticaNeue-LightItalic,Helvetica Neue" font-style="italic" font-size="24.0" fill="#FEFFFF" transform="matrix(1.00, 0.00, -0.00, -1.00, 479.6, 238.9)">o</text><text xml:space="preserve" font-family="HelveticaNeue-LightItalic,Helvetica Neue" font-style="italic" font-size="24.0" fill="#FEFFFF" transform="matrix(1.00, 0.00, -0.00, -1.00, 493.0, 238.9)">m</text><text xml:space="preserve" font-family="HelveticaNeue-LightItalic,Helvetica Neue" font-style="italic" font-size="24.0" fill="#FEFFFF" transform="matrix(1.00, 0.00, -0.00, -1.00, 513.0, 238.9)">p</text><text xml:space="preserve" font-family="HelveticaNeue-LightItalic,Helvetica Neue" font-style="italic" font-size="24.0" fill="#FEFFFF" transform="matrix(1.00, 0.00, -0.00, -1.00, 526.7, 238.9)">.</text><text xml:space="preserve" font-family="HelveticaNeue-LightItalic,Helvetica Neue" font-style="italic" font-size="24.0" fill="#FEFFFF" transform="matrix(1.00, 0.00, -0.00, -1.00, 533.4, 238.9)">u</text><text xml:space="preserve" font-family="HelveticaNeue-LightItalic,Helvetica Neue" font-style="italic" font-size="24.0" fill="#FEFFFF" transform="matrix(1.00, 0.00, -0.00, -1.00, 546.3, 238.9)">n</text><text xml:space="preserve" font-family="HelveticaNeue-LightItalic,Helvetica Neue" font-style="italic" font-size="24.0" fill="#FEFFFF" transform="matrix(1.00, 0.00, -0.00, -1.00, 559.2, 238.9)">i</text><text xml:space="preserve" font-family="HelveticaNeue-LightItalic,Helvetica Neue" font-style="italic" font-size="24.0" fill="#FEFFFF" transform="matrix(1.00, 0.00, -0.00, -1.00, 563.6, 238.9)">x</text><text xml:space="preserve" font-family="HelveticaNeue-LightItalic,Helvetica Neue" font-style="italic" font-size="24.0" fill="#FEFFFF" transform="matrix(1.00, 0.00, -0.00, -1.00, 574.7, 238.9)">.</text><text xml:space="preserve" font-family="HelveticaNeue-LightItalic,Helvetica Neue" font-style="italic" font-size="24.0" fill="#FEFFFF" transform="matrix(1.00, 0.00, -0.00, -1.00, 581.4, 238.9)">s</text><text xml:space="preserve" font-family="HelveticaNeue-LightItalic,Helvetica Neue" font-style="italic" font-size="24.0" fill="#FEFFFF" transform="matrix(1.00, 0.00, -0.00, -1.00, 592.9, 238.9)">h</text><text xml:space="preserve" font-family="HelveticaNeue-LightItalic,Helvetica Neue" font-style="italic" font-size="24.0" fill="#FEFFFF" transform="matrix(1.00, 0.00, -0.00, -1.00, 605.8, 238.9)">e</text><text xml:space="preserve" font-family="HelveticaNeue-LightItalic,Helvetica Neue" font-style="italic" font-size="24.0" fill="#FEFFFF" transform="matrix(1.00, 0.00, -0.00, -1.00, 618.3, 238.9)">l</text><text xml:space="preserve" font-family="HelveticaNeue-LightItalic,Helvetica Neue" font-style="italic" font-size="24.0" fill="#FEFFFF" transform="matrix(1.00, 0.00, -0.00, -1.00, 622.7, 238.9)">l</text><text xml:space="preserve" font-family="HelveticaNeue-LightItalic,Helvetica Neue" font-style="italic" font-size="24.0" fill="#FEFFFF" transform="matrix(1.00, 0.00, -0.00, -1.00, 627.2, 238.9)">,</text><text xml:space="preserve" font-family="HelveticaNeue-LightItalic,Helvetica Neue" font-style="italic" font-size="24.0" fill="#FEFFFF" transform="matrix(1.00, 0.00, -0.00, -1.00, 633.8, 238.9)"> </text><text xml:space="preserve" font-family="HelveticaNeue-LightItalic,Helvetica Neue" font-style="italic" font-size="24.0" fill="#FEFFFF" transform="matrix(1.00, 0.00, -0.00, -1.00, 640.5, 238.9)">D</text><text xml:space="preserve" font-family="HelveticaNeue-LightItalic,Helvetica Neue" font-style="italic" font-size="24.0" fill="#FEFFFF" transform="matrix(1.00, 0.00, -0.00, -1.00, 657.0, 238.9)">e</text><text xml:space="preserve" font-family="HelveticaNeue-LightItalic,Helvetica Neue" font-style="italic" font-size="24.0" fill="#FEFFFF" transform="matrix(1.00, 0.00, -0.00, -1.00, 669.4, 238.9)">c</text><text xml:space="preserve" font-family="HelveticaNeue-LightItalic,Helvetica Neue" font-style="italic" font-size="24.0" fill="#FEFFFF" transform="matrix(1.00, 0.00, -0.00, -1.00, 681.9, 238.9)"> </text><text xml:space="preserve" font-family="HelveticaNeue-LightItalic,Helvetica Neue" font-style="italic" font-size="24.0" fill="#FEFFFF" transform="matrix(1.00, 0.00, -0.00, -1.00, 688.5, 238.9)">1</text><text xml:space="preserve" font-family="HelveticaNeue-LightItalic,Helvetica Neue" font-style="italic" font-size="24.0" fill="#FEFFFF" transform="matrix(1.00, 0.00, -0.00, -1.00, 701.9, 238.9)">6</text><text xml:space="preserve" font-family="HelveticaNeue-LightItalic,Helvetica Neue" font-style="italic" font-size="24.0" fill="#FEFFFF" transform="matrix(1.00, 0.00, -0.00, -1.00, 715.2, 238.9)">,</text><text xml:space="preserve" font-family="HelveticaNeue-LightItalic,Helvetica Neue" font-style="italic" font-size="24.0" fill="#FEFFFF" transform="matrix(1.00, 0.00, -0.00, -1.00, 721.9, 238.9)"> </text><text xml:space="preserve" font-family="HelveticaNeue-LightItalic,Helvetica Neue" font-style="italic" font-size="24.0" fill="#FEFFFF" transform="matrix(1.00, 0.00, -0.00, -1.00, 728.6, 238.9)">1</text><text xml:space="preserve" font-family="HelveticaNeue-LightItalic,Helvetica Neue" font-style="italic" font-size="24.0" fill="#FEFFFF" transform="matrix(1.00, 0.00, -0.00, -1.00, 741.9, 238.9)">9</text><text xml:space="preserve" font-family="HelveticaNeue-LightItalic,Helvetica Neue" font-style="italic" font-size="24.0" fill="#FEFFFF" transform="matrix(1.00, 0.00, -0.00, -1.00, 755.3, 238.9)">9</text><text xml:space="preserve" font-family="HelveticaNeue-LightItalic,Helvetica Neue" font-style="italic" font-size="24.0" fill="#FEFFFF" transform="matrix(1.00, 0.00, -0.00, -1.00, 768.6, 238.9)">4</text></g></svg>